<?xml version="1.0" encoding="UTF-8"?>
<svg version="1.1" xmlns="http://www.w3.org/2000/svg" width="434" height="360">
<path d="M0 0 C9.68055847 7.64328564 15.44832031 17.93563947 17.0625 30.25 C18.13991783 41.56288725 14.81200946 52.19269574 8.0625 61.25 C6.42120864 63.07994554 4.72943449 64.77823745 2.92675781 66.44848633 C1.15704132 68.1586406 -0.41764032 69.92505568 -2.00390625 71.8046875 C-7.39617935 78.02297145 -13.34173986 83.69802713 -19.19921875 89.47265625 C-23.06489763 93.30486605 -26.89543924 97.11411087 -30.4375 101.25 C-35.65430287 107.34140264 -41.4923774 112.84653402 -47.19921875 118.47265625 C-51.06489763 122.30486605 -54.89543924 126.11411087 -58.4375 130.25 C-63.65430287 136.34140264 -69.4923774 141.84653402 -75.19921875 147.47265625 C-79.06489763 151.30486605 -82.89543924 155.11411087 -86.4375 159.25 C-91.65430287 165.34140264 -97.4923774 170.84653402 -103.19921875 176.47265625 C-107.05445904 180.29451783 -110.87617012 184.09191852 -114.40625 188.21875 C-119.38830489 194.03604904 -124.94460875 199.31330896 -130.39453125 204.68652344 C-135.48403966 209.71086968 -140.45845785 214.76207513 -145.109375 220.19921875 C-149.8694592 225.53905679 -155.10722039 230.4526805 -160.19921875 235.47265625 C-164.06489763 239.30486605 -167.89543924 243.11411087 -171.4375 247.25 C-176.65430287 253.34140264 -182.4923774 258.84653402 -188.19921875 264.47265625 C-192.06489763 268.30486605 -195.89543924 272.11411087 -199.4375 276.25 C-204.65430287 282.34140264 -210.4923774 287.84653402 -216.19921875 293.47265625 C-220.06489763 297.30486605 -223.89543924 301.11411087 -227.4375 305.25 C-232.65430287 311.34140264 -238.4923774 316.84653402 -244.19921875 322.47265625 C-248.78151751 327.01528143 -253.24223449 331.57998603 -257.40917969 336.5090332 C-265.36069839 345.56690539 -275.82712522 351.25413952 -287.9375 352.25 C-300.729227 352.37775757 -311.65562004 349.25061087 -320.9375 340.25 C-327.57633962 333.1753736 -333.72130248 325.64160804 -339.7265625 318.02734375 C-346.92170939 308.98891718 -354.32739218 300.11173655 -361.8125 291.3125 C-365.51164384 286.96363136 -369.11995016 282.55499155 -372.66796875 278.08203125 C-375.60003448 274.42325732 -378.57950329 270.80479572 -381.5625 267.1875 C-382.15861084 266.46457764 -382.75472168 265.74165527 -383.36889648 264.99682617 C-385.22456734 262.74744583 -387.08091053 260.49862218 -388.9375 258.25 C-390.18237699 256.74225795 -391.42716919 255.23444588 -392.671875 253.7265625 C-393.27765381 252.99276367 -393.88343262 252.25896484 -394.50756836 251.50292969 C-396.27600307 249.35679195 -398.03860971 247.20596862 -399.80078125 245.0546875 C-401.64687907 242.80356433 -403.51272253 240.58509711 -405.41796875 238.3828125 C-414.81361248 227.34777878 -417.83778856 215.5212409 -416.9375 201.25 C-415.07175419 190.24526203 -408.73249756 180.07269744 -399.9375 173.25 C-388.15610383 166.29927912 -376.11981848 164.14869607 -362.625 166.93359375 C-348.19852899 171.87220101 -339.42256828 182.68134758 -330.25390625 194.33203125 C-327.25382564 198.11122217 -324.19277236 201.83817009 -321.125 205.5625 C-320.52123535 206.29557373 -319.9174707 207.02864746 -319.29541016 207.78393555 C-315.140849 212.81715356 -310.93981771 217.80840299 -306.70874023 222.77734375 C-303.31901167 226.76897493 -300.04818196 230.84477959 -296.796875 234.94921875 C-293.9474438 238.47509055 -290.9509016 241.86446145 -287.9375 245.25 C-287.40527832 244.64559082 -286.87305664 244.04118164 -286.32470703 243.41845703 C-280.69904641 237.09095961 -274.84385384 231.06455241 -268.8125 225.125 C-261.94692299 218.39392253 -261.94692299 218.39392253 -255.4765625 211.2890625 C-250.24314751 205.18723392 -244.39603047 199.66668421 -238.67578125 194.02734375 C-234.81010237 190.19513395 -230.97956076 186.38588913 -227.4375 182.25 C-222.22069713 176.15859736 -216.3826226 170.65346598 -210.67578125 165.02734375 C-206.81010237 161.19513395 -202.97956076 157.38588913 -199.4375 153.25 C-194.22069713 147.15859736 -188.3826226 141.65346598 -182.67578125 136.02734375 C-178.18659493 131.57702485 -173.86287376 127.08722804 -169.75195312 122.28710938 C-165.19952359 117.17603941 -160.19425326 112.47307037 -155.3203125 107.671875 C-151.58250043 103.96814632 -147.8927513 100.27928694 -144.46875 96.28125 C-139.23865149 90.18150982 -133.39334983 84.66404148 -127.67578125 79.02734375 C-123.81010237 75.19513395 -119.97956076 71.38588913 -116.4375 67.25 C-111.22069713 61.15859736 -105.3826226 55.65346598 -99.67578125 50.02734375 C-95.81010237 46.19513395 -91.97956076 42.38588913 -88.4375 38.25 C-83.22069713 32.15859736 -77.3826226 26.65346598 -71.67578125 21.02734375 C-67.07230016 16.46371964 -62.64690985 11.84858179 -58.42626953 6.9296875 C-43.36336686 -10.06486324 -18.68408034 -12.84372505 0 0 Z " fill="#FFFFFF" transform="translate(416.9375,7.75)"/>
</svg>
