<?xml version="1.0" encoding="UTF-8"?>
<svg version="1.1" xmlns="http://www.w3.org/2000/svg" width="442" height="356">
<path d="M0 0 C1.35571282 -0.00187151 2.71142509 -0.00417357 4.06713653 -0.00686532 C7.76863846 -0.01294762 11.47011769 -0.01285397 15.17162347 -0.01167095 C19.1731197 -0.01146603 23.17460881 -0.0169943 27.17610168 -0.02172852 C35.00674153 -0.03001591 42.83737385 -0.03278249 50.66801772 -0.03334089 C57.03636745 -0.03381694 63.40471471 -0.03587612 69.77306366 -0.03904152 C87.84911099 -0.04784271 105.9251524 -0.05246171 124.0012019 -0.05171105 C125.46128597 -0.05165111 125.46128597 -0.05165111 126.9508667 -0.05158997 C128.41274405 -0.05152864 128.41274405 -0.05152864 129.90415427 -0.05146609 C145.69502825 -0.05105972 161.48587838 -0.06062827 177.27674547 -0.07472833 C193.5108895 -0.08910924 209.74502191 -0.09599758 225.97917247 -0.09513456 C235.08529974 -0.09480319 244.19140199 -0.09752382 253.2975235 -0.10831261 C261.0508682 -0.11744017 268.80417654 -0.11957436 276.55752429 -0.11280318 C280.50862353 -0.10954941 284.45965311 -0.10943975 288.41074562 -0.11815643 C292.03671691 -0.12607316 295.6625639 -0.12453785 299.28853235 -0.1158723 C301.20238473 -0.11363391 303.11624114 -0.12112511 305.03007817 -0.12911195 C322.07945157 -0.06196835 336.58932029 2.74114513 350.40155029 13.13371277 C351.01643311 13.58359558 351.63131592 14.03347839 352.26483154 14.49699402 C362.72050138 22.72706673 369.54596593 36.08411532 371.40155029 49.13371277 C371.7068212 55.15259789 371.6960159 61.16567238 371.69207764 67.19108582 C371.69806878 69.02189405 371.70487567 70.85269976 371.71243286 72.6835022 C371.73004195 77.63831031 371.73478613 82.59304927 371.73606443 87.54788566 C371.73748966 90.64949298 371.74176632 93.75108293 371.74705887 96.85268593 C371.76554342 107.69043207 371.77373159 118.52812912 371.77215576 129.3658905 C371.77095531 139.44002964 371.79204289 149.51395422 371.82364309 159.5880391 C371.84986817 168.26013999 371.86052042 176.93217108 371.85924494 185.60431129 C371.85873707 190.77353299 371.86432279 195.94256392 371.88560104 201.11174583 C371.90508832 205.97840763 371.90503673 210.84469875 371.89056778 215.71137428 C371.88849142 217.48738273 371.89310974 219.26341503 371.9052887 221.03938293 C372.02398216 239.56206374 368.37389839 255.02787198 355.21405029 268.94621277 C337.94732628 285.27197089 319.49357754 285.71319601 297.02655029 285.38371277 C294.63333611 285.36361262 292.24010558 285.34536809 289.84686279 285.32902527 C284.03139725 285.28531968 278.21655166 285.21868769 272.40155029 285.13371277 C280.92982851 300.00731075 289.52372324 314.82825644 298.42449951 329.48332214 C301.19981943 334.17126883 300.91156412 338.78965488 300.40155029 344.13371277 C298.85639011 349.43843466 295.40229019 352.3182506 290.78737378 355.08900166 C286.34937456 357.03232526 281.89111961 356.81293788 277.11575317 356.75517273 C275.99834138 356.76156155 274.88092958 356.76795037 273.72965682 356.77453279 C269.99540892 356.78976065 266.26222566 356.76933449 262.52801514 356.74894714 C259.84692085 356.75244896 257.16589585 356.75791183 254.4848175 356.76576233 C247.96526062 356.78026478 241.44601589 356.76808004 234.92648862 356.74664909 C227.33174731 356.7226025 219.73707697 356.72435565 212.14230604 356.726955 C198.59128627 356.7306425 185.04041334 356.7098414 171.48944092 356.67570496 C158.34389537 356.6426022 145.19850387 356.62844918 132.05291748 356.63468933 C117.73082544 356.64145454 103.40879786 356.63899041 89.08671534 356.61932993 C87.95058934 356.6177707 87.95058934 356.6177707 86.7915113 356.61617997 C85.27035085 356.61408911 83.74919042 356.61197814 82.22803002 356.6098468 C76.93531306 356.60295447 71.64261598 356.60228133 66.34989548 356.60372925 C59.9005746 356.60516946 53.45137923 356.59546869 47.00209998 356.57178289 C43.71220623 356.55992981 40.4225226 356.55439692 37.1326046 356.55862045 C33.56599539 356.5623263 29.99992703 356.54761792 26.43338013 356.52812195 C25.39408525 356.53344987 24.35479037 356.5387778 23.28400171 356.54426718 C17.90893704 356.49345188 14.01541427 356.20983243 9.40155029 353.13371277 C5.53390508 349.0902655 2.62709262 345.67794941 2.26483154 339.98527527 C2.47393154 333.00793867 5.11963258 328.50100012 9.11590576 322.92912292 C10.62834412 320.81699386 12.11065518 318.68506693 13.59295654 316.55168152 C15.88766864 313.25451756 18.19417277 309.96619974 20.51092529 306.68449402 C25.53777528 299.54477034 30.46357212 292.33502433 35.40155029 285.13371277 C34.71409729 285.1403746 34.02664429 285.14703644 33.31835938 285.15390015 C26.78817413 285.21441721 20.258069 285.259891 13.72766495 285.28914928 C10.37155785 285.304698 7.01586098 285.3273947 3.65985107 285.36003113 C-0.21276872 285.39672819 -4.08506177 285.41351109 -7.95782471 285.42668152 C-9.1426947 285.44216537 -10.3275647 285.45764923 -11.54833984 285.47360229 C-28.18244879 285.47690779 -42.29376765 280.10868728 -54.38360596 268.50871277 C-68.744638 253.10922867 -70.90276788 235.68210477 -70.88897705 215.52360535 C-70.89497176 213.76471169 -70.90177945 212.00582064 -70.90933228 210.24693298 C-70.9269045 205.49664731 -70.93168396 200.74643382 -70.93296385 195.99611878 C-70.9343911 193.02011709 -70.93867155 190.04413341 -70.94395828 187.06813622 C-70.9624302 176.6624931 -70.97063254 166.25690103 -70.96905518 155.85124207 C-70.96785486 146.18949218 -70.98894295 136.52796606 -71.0205425 126.86627275 C-71.04679363 118.53974456 -71.05741877 110.21328907 -71.05614436 101.88671988 C-71.05563728 96.92761229 -71.06117869 91.96870377 -71.08250046 87.00963783 C-71.10203226 82.33992468 -71.10190647 77.67059745 -71.08746719 73.00086975 C-71.08539632 71.29987707 -71.08997552 69.59885926 -71.10218811 67.89790916 C-71.23132738 48.64440597 -67.62771849 31.83138573 -53.94610596 17.41886902 C-38.25170194 2.14228607 -21.00226979 -0.02619865 0 0 Z M-29.91094971 43.38371277 C-30.36083252 43.90449402 -30.81071533 44.42527527 -31.27423096 44.96183777 C-36.52094673 53.56707072 -36.02545245 62.2400741 -35.9866333 71.96354675 C-35.99070251 73.67424351 -35.99604635 75.38493764 -36.00256348 77.09562683 C-36.01620239 81.72584097 -36.01095232 86.35585384 -36.00142622 90.98607135 C-35.99381063 95.84120381 -36.00088062 100.69631947 -36.00558472 105.55145264 C-36.01103726 113.70463644 -36.00386436 121.85773863 -35.98956299 130.01091003 C-35.97324293 139.42334141 -35.97852233 148.83557774 -35.9950422 158.24800438 C-36.0086779 166.34252379 -36.01056639 174.43698465 -36.0027262 182.53151184 C-35.99806043 187.36016634 -35.9973945 192.18872932 -36.00733566 197.01737785 C-36.0160332 201.55895695 -36.00993268 206.10028586 -35.99265289 210.64183807 C-35.98870267 212.30383197 -35.98979688 213.9658471 -35.99644089 215.62783241 C-36.15332946 231.32464319 -36.15332946 231.32464319 -28.43758065 244.52171904 C-21.26283875 250.81036261 -12.86872421 250.70505254 -3.77616882 250.64164734 C-2.38403852 250.6462622 -0.99191311 250.65261904 0.40020221 250.66055632 C4.20688752 250.67719248 8.01316964 250.66902961 11.81985605 250.65661144 C15.93239097 250.6475398 20.04485786 250.66154108 24.15737915 250.67253113 C32.20610269 250.69029795 40.25467685 250.68648471 48.30340619 250.67488056 C54.84537444 250.66583991 61.38730089 250.66462498 67.92927361 250.66897583 C68.86104115 250.66958876 69.7928087 250.67020169 70.75281162 250.6708332 C72.64578098 250.67211212 74.53875032 250.67340898 76.43171965 250.67472357 C94.17293057 250.68612382 111.91405874 250.67302403 129.65525609 250.6515221 C144.87370742 250.63364868 160.09203671 250.63675831 175.31048584 250.65519714 C192.99060081 250.67660858 210.67064333 250.68502833 228.35076946 250.67274809 C230.23639388 250.67147391 232.12201831 250.67021643 234.00764275 250.66897583 C234.93536732 250.66835873 235.86309189 250.66774163 236.81892933 250.66710582 C243.352561 250.66365396 249.88614665 250.66947767 256.41977119 250.67889404 C264.38269861 250.6901183 272.34546832 250.68706489 280.30837769 250.66577107 C284.37017905 250.65526682 288.43171757 250.65112807 292.49351692 250.66436768 C296.21372713 250.67631039 299.93343154 250.66969861 303.65359604 250.64845747 C305.63257096 250.64189179 307.61158115 250.65491066 309.59051901 250.66868639 C317.7589881 250.59673969 323.2884845 249.67352897 329.64373779 244.20402527 C330.18256592 243.56207214 330.72139404 242.92011902 331.27655029 242.25871277 C331.83084717 241.62191589 332.38514404 240.98511902 332.95623779 240.32902527 C336.22814649 235.35926125 336.65396412 230.51129264 336.66897583 224.67048645 C336.6757725 223.57482961 336.6757725 223.57482961 336.68270648 222.45703828 C336.69532073 220.02058468 336.69373206 217.58435547 336.69207764 215.14787292 C336.69806471 213.39644078 336.70487067 211.64501126 336.71243286 209.89358521 C336.73008084 205.14354069 336.73478771 200.39356826 336.73606443 195.64349413 C336.73748715 192.67411457 336.74175902 189.70475328 336.74705887 186.73537827 C336.76555443 176.37139983 336.77372998 166.00747279 336.77215576 155.64347839 C336.77095415 145.9901943 336.79206153 136.33713373 336.82364309 126.6839062 C336.84981145 118.38902602 336.86052284 110.09421882 336.85924494 101.79929769 C336.85873552 96.84819576 336.86440801 91.89729257 336.88560104 86.94623184 C336.90499309 82.28892057 336.90510129 77.63199744 336.89056778 72.97467232 C336.88847986 71.26871103 336.89317961 69.56272539 336.9052887 67.8568058 C336.97203348 57.79985923 336.86755293 50.44463482 330.08905029 42.38371277 C322.32255406 35.88152988 316.72573245 35.55690389 306.74385071 35.6257782 C305.34519694 35.62116622 303.94654802 35.61481131 302.5479092 35.60686922 C298.71390351 35.590193 294.8802968 35.59841431 291.0462898 35.61081409 C286.90781621 35.61986941 282.76941092 35.60589242 278.63095093 35.59489441 C270.52714241 35.57710926 262.42348209 35.58094928 254.31966776 35.59254497 C247.73283862 35.60157966 241.14605101 35.60280314 234.55921745 35.59844971 C233.62162821 35.59783677 232.68403896 35.59722384 231.71803791 35.59659234 C229.81331149 35.59531343 227.90858508 35.59401658 226.00385868 35.59270197 C208.14343359 35.58129602 190.28309062 35.59440979 172.422679 35.61590344 C157.10073493 35.63377151 141.77891209 35.63067274 126.45697021 35.61222839 C108.66187241 35.59081691 90.8668466 35.58239774 73.07173771 35.59467745 C71.17372478 35.59595163 69.27571185 35.59720912 67.3776989 35.59844971 C65.97693474 35.59937536 65.97693474 35.59937536 64.54787232 35.60031971 C57.97018121 35.603772 51.3925358 35.59794683 44.81485176 35.58853149 C36.79697956 35.57730693 28.77926399 35.58036106 20.76140971 35.60165447 C16.67126913 35.61215919 12.58138957 35.61629672 8.49125099 35.60305786 C4.74505632 35.59111579 0.99936398 35.59772593 -2.74678529 35.61896807 C-4.73977345 35.62553441 -6.73279663 35.61251414 -8.725748 35.59873915 C-17.02006699 35.67129195 -24.2900184 36.55237443 -29.91094971 43.38371277 Z M68.82810879 296.68335342 C68.05108472 298.32641605 67.30042393 299.98222579 66.5776844 301.64987946 C64.58542587 305.85725519 61.82262182 309.50859398 59.08905029 313.25871277 C56.00243432 316.97720412 56.00243432 316.97720412 54.40155029 321.13371277 C119.41155029 321.13371277 184.42155029 321.13371277 251.40155029 321.13371277 C249.93794474 317.4746989 248.55009497 314.49002511 246.57342529 311.14933777 C245.74391357 309.74554871 245.74391357 309.74554871 244.89764404 308.31340027 C244.32143311 307.34660339 243.74522217 306.37980652 243.15155029 305.38371277 C242.59080811 304.43238464 242.03006592 303.48105652 241.45233154 302.50090027 C239.78917262 299.69696029 238.12379252 296.90189543 236.40155029 294.13371277 C236.07642613 293.40392464 235.75130198 292.67413651 235.41632557 291.92223358 C233.99676661 289.15877707 232.693682 287.24668519 230.40155029 285.13371277 C225.64770506 283.72113749 220.89391204 283.79817604 215.97357178 283.81047058 C214.49618831 283.78188015 213.01887184 283.74962873 211.54164124 283.71400452 C207.5368192 283.63037224 203.53368698 283.60502743 199.52807498 283.59546757 C197.02080818 283.58683145 194.51396969 283.56562623 192.00682259 283.53998566 C183.24482699 283.45075883 174.48405574 283.40909172 165.72161865 283.41105652 C157.57817038 283.41162498 149.44057791 283.30808721 141.29869026 283.15544629 C134.2900987 283.02875863 127.28341553 282.97623266 120.2736879 282.97999835 C116.09441921 282.98098547 111.92053603 282.95296964 107.74242973 282.84975433 C84.60836938 281.72097259 84.60836938 281.72097259 68.82810879 296.68335342 Z " fill="#FFFFFF" transform="translate(70.59844970703125,-0.1337127685546875)"/>
</svg>
