<?xml version="1.0" encoding="UTF-8"?>
<svg version="1.1" xmlns="http://www.w3.org/2000/svg" width="368" height="466">
<path d="M0 0 C1.51997316 -0.00551503 1.51997316 -0.00551503 3.07065284 -0.01114148 C6.47051808 -0.02216589 9.87035273 -0.02602006 13.27023315 -0.02983093 C15.70629473 -0.03609651 18.14235534 -0.04274339 20.57841492 -0.04974365 C27.89123839 -0.06895895 35.20405932 -0.07956985 42.51690036 -0.08847144 C45.96431016 -0.09285943 49.41171844 -0.09822489 52.85912704 -0.10346031 C64.3251393 -0.12046886 75.79115061 -0.13496205 87.25717354 -0.14220905 C90.23043952 -0.14411881 93.20370549 -0.14603916 96.17697144 -0.147995 C97.28539667 -0.14872061 97.28539667 -0.14872061 98.41621433 -0.14946087 C110.38128689 -0.15775762 122.34625937 -0.18309017 134.31128825 -0.21557567 C146.60716659 -0.24868618 158.90299413 -0.26666139 171.19891727 -0.26985329 C178.09792662 -0.27201463 184.99678998 -0.28070804 191.89575577 -0.30631447 C198.38824411 -0.33035723 204.88054135 -0.33382214 211.37306786 -0.32355309 C213.75182023 -0.32305799 216.13058558 -0.32937059 218.50929832 -0.34310913 C221.76570707 -0.36085984 225.02117755 -0.3537055 228.27758789 -0.34057617 C229.21098216 -0.35154542 230.14437643 -0.36251466 231.10605538 -0.37381631 C242.34565374 -0.26498357 252.54235481 4.13245168 260.76974487 11.77217102 C267.80056073 19.36545214 270.14160696 28.15982082 270.14837933 38.34201527 C270.15160377 39.57108311 270.15482822 40.80015096 270.15815037 42.06646329 C270.15667939 43.42212676 270.15511168 44.77779012 270.15345764 46.13345337 C270.15532655 47.580023 270.15762757 49.02659212 270.16032296 50.47316045 C270.1664375 54.44418701 270.16630778 58.41519252 270.16512859 62.38622272 C270.1649245 66.67058631 270.17044416 70.95494315 270.17518616 75.23930359 C270.18349134 83.63163156 270.18624094 92.02395251 270.18679854 100.41628424 C270.18727375 107.2381479 270.18932879 114.06000925 270.19249916 120.88187218 C270.20130533 140.22430596 270.20591859 159.5667342 270.20516869 178.90917001 C270.20510875 180.47318779 270.20510875 180.47318779 270.20504761 182.06880188 C270.20500673 183.11275386 270.20496585 184.15670584 270.20492373 185.23229273 C270.20451725 202.15197376 270.21408721 219.07163253 270.22818597 235.99130712 C270.2425492 253.36548277 270.24945619 270.73964757 270.2485922 288.11382931 C270.24826021 297.86763682 270.25100799 307.621421 270.26177025 317.37522316 C270.27087453 325.67960397 270.27305108 333.98395088 270.26626083 342.28833453 C270.26299528 346.52434731 270.2629402 350.76029505 270.27161407 354.99630165 C270.27947842 358.87690988 270.27804831 362.75740145 270.26932994 366.63800683 C270.26779482 368.03905558 270.2696116 369.44011303 270.27519002 370.84115151 C270.32364413 383.87788716 269.06064446 394.45776752 259.94161987 404.41670227 C253.11316214 410.85121052 245.16189817 415.25888452 235.6227026 415.2813921 C234.30420831 415.28807886 234.30420831 415.28807886 232.95907778 415.29490072 C231.99771349 415.29471635 231.0363492 415.29453199 230.04585266 415.29434204 C229.02114099 415.29801873 227.99642932 415.30169542 226.94066578 415.30548352 C223.49623594 415.31652408 220.05183625 415.32036486 216.60739136 415.32417297 C214.14192102 415.33043739 211.67645163 415.33708417 209.21098328 415.34408569 C201.80430235 415.36331517 194.39762944 415.37391474 186.99093089 415.38281348 C183.50018433 415.38719964 180.00943929 415.39256565 176.51869392 415.39780235 C164.90946359 415.41481389 153.30023419 415.42930667 141.69099331 415.43655109 C138.67940202 415.43846089 135.66781074 415.44038124 132.65621948 415.44233704 C131.53348823 415.44306265 131.53348823 415.44306265 130.38807554 415.44380292 C118.27097661 415.45209804 106.15397656 415.47742651 94.03692078 415.50991771 C81.58739243 415.54302731 69.13791427 415.56100342 56.68834168 415.56419533 C49.70212773 415.56635696 42.71605794 415.57505437 35.72988701 415.60065651 C29.15451086 415.62469796 22.57934691 415.62816473 16.0039196 415.61789513 C13.5945296 415.61739998 11.1851268 415.62371411 8.77577591 415.63745117 C5.47771639 415.65519847 2.18058362 415.64804912 -1.11747742 415.63491821 C-2.53610127 415.65137208 -2.53610127 415.65137208 -3.98338419 415.66815835 C-14.94216627 415.56335357 -24.06953313 411.71864178 -31.98025513 404.14717102 C-40.5456909 394.79453984 -41.4239592 385.82071048 -41.36793518 373.54074097 C-41.37211142 372.05119375 -41.37759052 370.56164971 -41.38425499 369.07211155 C-41.39869027 364.99152998 -41.39447092 360.91115073 -41.38708818 356.83055818 C-41.38235408 352.42487663 -41.39486847 348.0192387 -41.40510559 343.61357117 C-41.42229393 334.98754799 -41.42313356 326.36159765 -41.41789269 317.7355618 C-41.41384997 310.72399879 -41.41529575 303.71245729 -41.42064095 296.70089531 C-41.42138937 295.70267233 -41.42213779 294.70444935 -41.42290889 293.67597718 C-41.42444038 291.64804403 -41.42597873 289.62011088 -41.42752386 287.59217774 C-41.44124892 268.57860848 -41.43581107 249.56508038 -41.42433865 230.55151206 C-41.41440532 213.15987039 -41.42734865 195.76833509 -41.45127284 178.37670983 C-41.47565934 160.51429601 -41.48527287 142.65193174 -41.47862011 124.78950161 C-41.47512702 114.76295213 -41.47736599 104.73648447 -41.49487114 94.70994759 C-41.50958745 86.17501206 -41.51023597 77.64021598 -41.49280023 69.10528321 C-41.48428334 64.75172744 -41.48215749 60.39842083 -41.49745178 56.04487801 C-41.51128827 52.05690164 -41.50654934 48.06938817 -41.48721255 44.08143865 C-41.48344903 42.64142086 -41.48638471 41.20136608 -41.4968242 39.76138122 C-41.55137547 31.65842769 -41.1416886 25.21802856 -36.98025513 18.14717102 C-36.52263794 17.34924133 -36.06502075 16.55131165 -35.59353638 15.72920227 C-29.9858999 8.10079589 -22.0320381 3.06333955 -12.90089607 0.58215046 C-8.6004666 -0.05832484 -4.34219343 -0.00084554 0 0 Z M5.96115112 109.22529602 C2.26546598 115.04626186 0.30922874 119.4884459 1.36349487 126.40107727 C3.1908484 133.50611633 7.68317516 137.30616916 13.6551857 141.21859169 C17.03271007 142.54496971 20.31259427 142.42944972 23.8878479 142.41459656 C25.08507205 142.42139323 25.08507205 142.42139323 26.30648255 142.4283272 C28.98407397 142.44099913 31.66146271 142.43934903 34.33908081 142.43769836 C36.25770327 142.44368195 38.17632332 142.45048711 40.09494019 142.45805359 C45.30996303 142.47574007 50.52492027 142.48041014 55.73997021 142.48168516 C60.09371899 142.48358365 64.44745248 142.49094078 68.80119538 142.49802935 C79.07489944 142.51432169 89.34856844 142.51919761 99.62228394 142.51777649 C110.2173238 142.51657546 120.81215983 142.53766767 131.40714812 142.56926382 C140.50452817 142.5954263 149.60184166 142.60614376 158.69925904 142.60486567 C164.13216706 142.60435594 169.56489405 142.61004494 174.99776459 142.63122177 C180.10974811 142.65060305 185.22137794 142.65072924 190.33337402 142.63618851 C192.20703905 142.63409904 194.08072621 142.63880949 195.95435333 142.65090942 C198.51788493 142.66638906 201.0802011 142.65703633 203.64370728 142.64164734 C204.74859926 142.65707803 204.74859926 142.65707803 205.87581229 142.67282045 C211.30394899 142.60110934 215.46245211 141.1120446 220.01974487 138.14717102 C222.11970186 135.9991175 222.11970186 135.9991175 223.45724487 133.58467102 C223.93033081 132.82025696 224.40341675 132.0558429 224.89083862 131.26826477 C227.42327642 126.5100858 227.83340402 122.12713285 226.40646362 116.90107727 C223.80546566 110.10639976 219.45449598 106.36454657 213.01974487 103.14717102 C210.45581732 103.04289999 207.91866203 102.99937398 205.35418701 103 C204.55366287 102.99632331 203.75313874 102.99264662 202.92835629 102.98885852 C200.23078542 102.97779599 197.53325303 102.97397347 194.83566284 102.97016907 C192.90748471 102.96390625 190.97930779 102.95725962 189.0511322 102.95025635 C183.80088513 102.93282736 178.55064718 102.92228897 173.30037832 102.91405082 C170.02079834 102.90890369 166.7412212 102.90282776 163.46164322 102.89653969 C153.20259009 102.87748057 142.94354417 102.86325211 132.68447673 102.85492772 C120.8389662 102.84515781 108.99364266 102.81884764 97.14819801 102.77842683 C87.99566516 102.74826645 78.84318591 102.73345883 69.69060433 102.73014671 C64.22300246 102.72779574 58.75560019 102.71882939 53.28805161 102.69368553 C48.1416384 102.67040192 42.99555615 102.66617285 37.84910393 102.67644691 C35.9625342 102.67694235 34.07594817 102.67061978 32.18942833 102.65689087 C29.60829217 102.63916174 27.02834235 102.64628279 24.44720459 102.65942383 C23.33442982 102.64296996 23.33442982 102.64296996 22.19917476 102.62618369 C15.86435654 102.70373618 10.46841607 104.67526765 5.96115112 109.22529602 Z M5.14474487 195.83467102 C1.96360677 200.79350395 0.44319996 205.70965796 1.43380737 211.61592102 C2.99020167 216.74689123 5.03282913 221.24494907 9.7007165 224.21770042 C14.74850836 226.90905936 18.72683931 227.72528037 24.40682983 227.66183472 C25.61530586 227.67225301 25.61530586 227.67225301 26.84819555 227.68288177 C29.52741134 227.70106767 32.20573319 227.69091132 34.88497925 227.68061829 C36.81404784 227.68768097 38.74311089 227.69642745 40.67216492 227.70672607 C45.89735946 227.729189 51.12225067 227.72628775 56.34747505 227.7174046 C60.71386497 227.71228779 65.08019824 227.71959282 69.44658232 227.72687668 C79.74820139 227.74386542 90.04967229 227.7403196 100.35128784 227.72358704 C110.97147158 227.70665992 121.59124446 227.72251084 132.21138334 227.75480992 C141.33858893 227.7815147 150.4656667 227.78877959 159.59290743 227.78029484 C165.04030765 227.77536909 170.48746059 227.77756263 175.93482971 227.79808235 C181.05680931 227.81645373 186.17819815 227.81046268 191.3001461 227.78588295 C193.17703139 227.78088004 195.05396181 227.78435129 196.93081093 227.7970314 C199.49876913 227.813005 202.06479202 227.7979722 204.63265991 227.77536011 C205.7392956 227.7931137 205.7392956 227.7931137 206.86828756 227.81122595 C213.77630165 227.6881498 218.64067108 224.58885202 223.39474487 219.70967102 C226.5856415 214.6778725 227.71140622 210.07569685 227.01974487 204.14717102 C224.54005218 197.08447487 221.50286666 192.86896316 215.01974487 189.14717102 C211.38683723 187.93620181 208.05438283 187.99578649 204.27189636 187.99327087 C203.07595385 187.98669749 203.07595385 187.98669749 201.85585088 187.97999132 C199.17520965 187.96660081 196.49460131 187.96042388 193.81393433 187.95429993 C191.89546052 187.94639914 189.97698821 187.9381302 188.05851746 187.92951965 C181.75003479 187.90329616 175.44154548 187.88799136 169.13302612 187.87373352 C166.9616667 187.86837392 164.79030732 187.86299641 162.61894798 187.85760117 C153.58669389 187.83597168 144.5544416 187.81723498 135.52216816 187.80597878 C122.57653774 187.78973978 109.63120748 187.75656379 96.68569022 187.69957793 C87.58409377 187.6608786 78.48257761 187.64134606 69.38090104 187.63605821 C63.94456111 187.63240468 58.5085413 187.62038294 53.07229042 187.58795547 C47.9561819 187.55787534 42.8405872 187.55156297 37.7244091 187.56333923 C35.84911814 187.56355997 33.97380334 187.5552546 32.09859467 187.53768539 C20.72874757 187.43697829 13.79866065 187.74514105 5.14474487 195.83467102 Z M4.21115112 282.29560852 C1.2048642 286.9676741 0.49511931 291.64198024 1.42599487 297.10029602 C3.35949302 303.76577649 7.15899601 307.79287218 13.05490112 311.23701477 C17.50980715 313.30061935 21.81871771 313.2934217 26.6600647 313.28761292 C27.82053688 313.2920696 27.82053688 313.2920696 29.00445294 313.29661632 C31.59907943 313.30529388 34.19365972 313.30681077 36.78829956 313.30830383 C38.6478078 313.31293269 40.5073151 313.31795744 42.36682129 313.323349 C47.42067905 313.33646882 52.47452352 313.34291719 57.52839565 313.34735966 C60.68637457 313.35029115 63.84434987 313.35439612 67.00232697 313.35886383 C76.88441665 313.37253787 86.76649804 313.3822049 96.64859653 313.38606572 C108.05315087 313.39054591 119.45758533 313.40809242 130.86210322 313.43706632 C139.67922357 313.4586886 148.4963102 313.4687703 157.31345677 313.47010684 C162.57866477 313.4711545 167.84376006 313.47705415 173.10894012 313.49492645 C178.06328086 313.51141644 183.01742427 313.51355808 187.97178268 313.50478745 C189.78739577 313.50401756 191.6030195 313.50835336 193.4186058 313.5182457 C195.90313433 313.53098593 198.38696615 313.52507739 200.87149048 313.5146637 C201.94136393 313.5267483 201.94136393 313.5267483 203.03285098 313.53907704 C211.19468527 313.45943144 217.25724663 310.77565768 223.01974487 305.14717102 C226.67041461 300.7411903 227.13042505 295.71523507 227.01974487 290.14717102 C226.07672081 283.95649543 222.82747398 280.53407987 218.15255737 276.59248352 C213.28611633 273.29471212 208.87002243 272.85545625 203.10731506 272.87974548 C201.92105993 272.87294881 201.92105993 272.87294881 200.71084005 272.86601484 C198.06399286 272.85336655 195.41735133 272.85499148 192.77047729 272.85664368 C190.87141149 272.85065867 188.97234813 272.84385319 187.07328796 272.83628845 C181.91617356 272.81861789 176.75912553 272.81393261 171.60198379 272.81265688 C168.37916801 272.81123526 165.1563691 272.80696546 161.93355751 272.80166245 C150.68778029 272.78315833 139.44205049 272.77499227 128.19625854 272.77656555 C117.71764454 272.7777669 107.23923653 272.75666683 96.76067466 272.72507823 C87.76093808 272.69891562 78.76126877 272.68819826 69.76149446 272.68947637 C64.38784534 272.68998603 59.01437926 272.68430068 53.64076805 272.66312027 C48.58540354 272.64373838 43.53039668 272.6436132 38.47501945 272.65815353 C36.62231676 272.66024282 34.76959169 272.65553363 32.91692734 272.64343262 C30.38190864 272.62795056 27.84811866 272.63730715 25.31312561 272.6526947 C24.22092965 272.63726401 24.22092965 272.63726401 23.10666913 272.62152159 C15.19986933 272.72712865 9.04307496 276.10758617 4.21115112 282.29560852 Z " fill="#FFFFFF" transform="translate(40.980255126953125,50.85282897949219)"/>
<path d="M0 0 C2.40768753 -0.00378798 4.81537288 -0.00929195 7.22305298 -0.01637268 C13.05709482 -0.02883988 18.89089637 -0.02280572 24.72492756 -0.0076971 C31.5314693 0.00925236 38.33795809 0.00594163 45.14451443 0.00220882 C57.29495445 -0.00365572 69.4452905 0.01044758 81.59570312 0.03515625 C93.36332086 0.05908349 105.1307998 0.06615458 116.8984375 0.05566406 C129.74175765 0.04423496 142.58501376 0.04234853 155.42833316 0.05676216 C156.79971432 0.05828786 158.17109548 0.05980821 159.54247665 0.06132317 C160.55435933 0.06245989 160.55435933 0.06245989 161.58668409 0.06361957 C166.32207246 0.0683462 171.05743206 0.0665226 175.79281998 0.06225777 C182.17381371 0.05747357 188.5546162 0.06764962 194.93557358 0.08921242 C197.2723908 0.0947603 199.60922647 0.09526403 201.94604492 0.09025955 C205.14499534 0.08426957 208.34336829 0.0968831 211.54226685 0.11402893 C212.91666355 0.10501386 212.91666355 0.10501386 214.31882584 0.09581667 C225.85829714 0.20765921 236.51990332 3.51151501 245.15576172 11.35327148 C252.58506412 19.28839873 255.23277208 27.94575357 255.2509203 38.70099735 C255.25537814 39.9310818 255.25983598 41.16116625 255.26442891 42.42852598 C255.26433963 43.78536356 255.26414981 45.14220114 255.26387024 46.4990387 C255.26717184 47.94688275 255.27089804 49.39472589 255.27501172 50.84256786 C255.28500597 54.81726918 255.28874435 58.79195539 255.29140103 62.76666749 C255.29531169 67.05520079 255.30488944 71.34372222 255.31361389 75.63224792 C255.33335592 85.98658939 255.34344126 96.3409318 255.35234168 106.69528738 C255.35672795 111.57447158 255.36209385 116.45365471 255.36733055 121.33283806 C255.38433993 137.55730368 255.39883369 153.78176863 255.40607929 170.0062418 C255.4079891 174.21444767 255.40990945 178.42265353 255.41186523 182.63085938 C255.41234897 183.67675273 255.41283271 184.72264608 255.41333111 185.80023318 C255.42162998 202.73986905 255.44696579 219.67943428 255.47944591 236.6190393 C255.51253867 254.0203544 255.53053002 271.42163362 255.53372353 288.82298034 C255.53588648 298.58924648 255.54460374 308.35540956 255.57018471 318.12164497 C255.59192192 326.43947654 255.59992724 334.75718002 255.59021793 343.07503677 C255.58568209 347.31567215 255.58751754 351.55604338 255.60697937 355.7966423 C255.62467531 359.68620544 255.6235618 363.575313 255.60808208 367.46488141 C255.60571571 368.86466051 255.60997866 370.26447169 255.62191073 371.66420192 C255.7088995 382.55162995 254.89349255 394.80167551 246.86669922 403.00170898 C242.97407717 406.93255645 239.07105345 410.04450911 234.11669922 412.50170898 C232.94107422 413.09983398 231.76544922 413.69795898 230.55419922 414.31420898 C226.53575498 415.75771805 222.55372116 415.63775278 218.33935547 415.57592773 C217.64394653 415.57057007 216.9485376 415.5652124 216.23205566 415.55969238 C214.52688405 415.54578158 212.82177545 415.52448596 211.11669922 415.50170898 C211.11610213 414.79318385 211.11550504 414.08465872 211.11488986 413.35466313 C211.07898009 371.34275175 211.02231679 329.33091284 210.93877827 287.31906785 C210.92876105 282.27236388 210.91891688 277.22565959 210.90917969 272.17895508 C210.90723831 271.17426563 210.90529694 270.16957617 210.90329674 269.13444158 C210.87229284 252.87600436 210.85530058 236.61758125 210.843505 220.35912004 C210.8310851 203.67099876 210.80356475 186.98295141 210.76208615 170.29487681 C210.73697479 160.00106835 210.72358022 149.70738254 210.72526965 139.41354302 C210.72529945 132.35047284 210.71063461 125.28752741 210.68453494 118.22450587 C210.66991675 114.15215538 210.66166211 110.0800607 210.67089653 106.00768852 C210.67922224 102.27271103 210.66892347 98.53824608 210.6443626 94.80334434 C210.63604834 92.82591565 210.64717408 90.84843399 210.65919757 88.87102437 C210.54309486 76.72283723 207.41737558 67.18914492 200.11669922 57.50170898 C199.53919922 56.63545898 198.96169922 55.76920898 198.36669922 54.87670898 C188.42080853 44.37826881 173.78263892 38.69078755 159.4503994 38.23999596 C157.82103123 38.22452515 156.19154043 38.21942353 154.56210327 38.22323608 C153.20171462 38.21454748 153.20171462 38.21454748 151.81384337 38.20568335 C148.80456944 38.18881054 145.79545005 38.18581789 142.78613281 38.18286133 C140.6171939 38.17355436 138.44825855 38.16338456 136.27932739 38.15242004 C130.41234561 38.12519267 124.54538775 38.10999217 118.67835951 38.09699202 C112.53909542 38.08132966 106.39987993 38.05454935 100.26065063 38.02896118 C88.64456472 37.98222833 77.0284696 37.94545763 65.4123379 37.91228831 C52.18379068 37.87402809 38.95529235 37.82462814 25.72678638 37.77430415 C-1.47653975 37.671066 -28.67989729 37.58177922 -55.88330078 37.50170898 C-55.90034192 36.05977424 -55.91250696 34.61778131 -55.92260742 33.17578125 C-55.92990372 32.37278091 -55.93720001 31.56978058 -55.94471741 30.7424469 C-55.69223407 21.53078837 -49.40760652 14.80677523 -43.10986328 8.81420898 C-30.91671554 -1.47536717 -14.94050643 -0.06712278 0 0 Z " fill="#FFFFFF" transform="translate(112.88330078125,-0.501708984375)"/>
</svg>
