<?xml version="1.0" encoding="UTF-8"?>
<svg version="1.1" xmlns="http://www.w3.org/2000/svg" width="323" height="329">
<path d="M0 0 C0.83171298 -0.00170885 1.66342595 -0.0034177 2.52034235 -0.00517833 C5.28712944 -0.00845361 8.05367009 0.00249791 10.82043457 0.01345825 C12.811737 0.01402279 14.80303985 0.01370497 16.79434204 0.01257324 C22.186295 0.0120004 27.57815863 0.02374377 32.97009087 0.03772116 C38.6101829 0.0502398 44.25027708 0.05139991 49.89038086 0.05377197 C60.56450669 0.0599834 71.23859146 0.07638968 81.91269922 0.09647095 C94.06742404 0.11884042 106.22215085 0.12982602 118.37689114 0.13986182 C143.37437107 0.16075619 168.37181458 0.19592564 193.3692627 0.24050903 C192.42822003 1.50420469 191.48591399 2.76695959 190.54309082 4.02932739 C190.01848267 4.7326268 189.49387451 5.43592621 188.95336914 6.16053772 C186.69230115 9.12937644 184.29840713 11.97134066 181.8692627 14.80300903 C181.42195801 15.328302 180.97465332 15.85359497 180.51379395 16.39480591 C179.62504563 17.43762091 178.72360872 18.46979334 177.80813026 19.48922253 C176.33156145 21.17678464 176.33156145 21.17678464 175.36940575 23.05982685 C173.91393291 25.40863019 172.68568629 26.70093942 170.3692627 28.24050903 C164.84209259 29.30336179 159.3604835 29.14294738 153.75061035 29.06350708 C152.03858436 29.06484733 150.32655839 29.06932202 148.61454773 29.07669067 C144.93271435 29.08592945 141.25184133 29.07325197 137.57011795 29.04355431 C131.74520298 28.99691859 125.92096965 29.00037856 120.09591675 29.01072693 C109.83050565 29.02254394 99.56555298 28.99165035 89.30023193 28.9515686 C73.85310417 28.89174688 58.40595141 28.86733097 42.9587158 28.87981445 C37.17191118 28.88291933 31.38569364 28.8645113 25.59900308 28.82882154 C21.99418282 28.81023598 18.38947852 28.80794885 14.78461647 28.80973053 C13.11733602 28.80707911 11.45004961 28.79755453 9.78285408 28.78051949 C-2.20611966 28.25002172 -2.20611966 28.25002172 -12.6307373 33.24050903 C-16.34863603 38.59491044 -17.21119476 43.59521016 -17.13194275 49.98272705 C-17.13747715 50.82654084 -17.14301154 51.67035463 -17.14871365 52.53973854 C-17.1622531 55.348016 -17.14738777 58.15539433 -17.13244629 60.96365356 C-17.13623185 62.98463314 -17.14173384 65.00561011 -17.14881897 67.02658081 C-17.16275808 72.50165271 -17.15161529 77.97640982 -17.13510776 83.45146418 C-17.12123999 89.18484897 -17.12771916 94.91821581 -17.13124084 100.65161133 C-17.13394116 110.27683577 -17.12048117 119.90193538 -17.09729004 129.52713013 C-17.07066638 140.65395348 -17.06893871 151.78056834 -17.0806784 162.90741265 C-17.09145732 173.61605567 -17.08526917 184.32462331 -17.07112312 195.03326035 C-17.06536586 199.58895526 -17.06544394 204.14459496 -17.07018852 208.70029068 C-17.07496082 214.06345526 -17.06484596 219.42639149 -17.04323387 224.78951263 C-17.03766987 226.75753637 -17.03719715 228.72558206 -17.04218674 230.69360733 C-17.04814369 233.38007767 -17.03562666 236.06585075 -17.01841736 238.7522583 C-17.0244274 239.53085964 -17.03043745 240.30946099 -17.03662962 241.11165631 C-16.97271021 246.59931383 -15.85726158 250.74086445 -12.16589355 254.88504028 C-6.57814855 259.31670012 -2.41503357 259.38871237 4.54780579 259.38095093 C5.37932921 259.38392205 6.21085263 259.38689317 7.06757373 259.38995433 C9.8580069 259.3986362 12.64839716 259.40014914 15.43884277 259.40164185 C17.43790275 259.40627035 19.43696184 259.41129506 21.4360199 259.41668701 C26.8699637 259.4298092 32.30389516 259.43625553 37.73785233 259.44069767 C41.13234705 259.44362847 44.52683839 259.44773327 47.92133141 259.45220184 C58.54078462 259.46587581 69.16023011 259.47554317 79.77969152 259.47940373 C92.04058991 259.48388547 104.30137687 259.5014392 116.56224138 259.53040433 C126.03836382 259.55201422 135.51445489 259.56210763 144.99060172 259.56344485 C150.6509264 259.5644933 156.31114633 259.57040979 161.97144508 259.58826447 C167.29594847 259.60473328 172.62026821 259.60690638 177.94478798 259.59812546 C179.8978881 259.59735447 181.85099804 259.60170592 183.80407333 259.61158371 C186.47285721 259.62428861 189.1409892 259.61843435 191.80976868 259.60800171 C192.9657213 259.62008632 192.9657213 259.62008632 194.1450265 259.63241506 C199.26387355 259.58569966 202.81522093 258.62105413 207.3692627 256.24050903 C212.28267026 251.19430667 213.62690641 246.56063362 213.56698608 239.6212616 C213.5643117 238.96941546 213.56163731 238.31756933 213.55888188 237.64597028 C213.54781838 235.46906169 213.52260085 233.29254376 213.49768066 231.11575317 C213.48732943 229.55155066 213.47803312 227.98734085 213.4697113 226.42312622 C213.45072328 223.0564445 213.42657525 219.68985193 213.39913559 216.32322884 C213.35803189 210.98840437 213.34283395 205.65370513 213.33389282 200.31874084 C213.33227736 199.41696281 213.3306619 198.51518478 213.32899749 197.58608013 C213.32576015 195.74200769 213.32259044 193.89793513 213.31948686 192.05386245 C213.29770559 179.638389 213.25986968 167.22363496 213.14660645 154.80862427 C213.07034732 146.42842697 213.0370974 138.04924764 213.05250847 129.66870207 C213.05895866 125.23964294 213.04406555 120.81304532 212.97643661 116.3844471 C212.50983325 84.41605027 212.50983325 84.41605027 220.14318848 76.33987427 C222.14421267 74.5132973 224.22089029 72.90290309 226.3692627 71.24050903 C228.13222381 69.31256108 229.699796 67.30624998 231.3067627 65.24050903 C232.37410645 63.93146606 232.37410645 63.93146606 233.4630127 62.59597778 C234.63660281 61.14582443 235.80455434 59.69106001 236.9630127 58.22879028 C238.05671627 56.86484019 239.20556931 55.54525616 240.3692627 54.24050903 C241.0292627 54.24050903 241.6892627 54.24050903 242.3692627 54.24050903 C242.43942569 79.45808206 242.4922866 104.6756404 242.52469921 129.89329147 C242.54015072 141.60297667 242.56120744 153.31260112 242.59558105 165.02224731 C242.62553593 175.23150558 242.64485016 185.44071984 242.65152818 195.65002084 C242.65543012 201.05291713 242.66456445 206.45568755 242.68645287 211.8585434 C242.70691422 216.95072064 242.71307706 222.04272093 242.70858574 227.13493538 C242.70940664 228.99724605 242.71531449 230.85956305 242.72687912 232.721838 C242.81190485 247.12828752 241.87275254 259.06456085 233.3692627 271.24050903 C232.2864502 272.81832153 232.2864502 272.81832153 231.1817627 274.42800903 C219.40407033 286.2057014 205.35562274 288.74306439 189.42019653 288.77151489 C187.48248095 288.76214623 185.54476732 288.75236707 183.60705566 288.74221802 C181.53433873 288.74600746 179.46162433 288.75151263 177.38891602 288.7585907 C171.79397533 288.7724792 166.19934443 288.7614228 160.60442114 288.74487948 C154.73193501 288.73096445 148.85946569 288.73749625 142.98696899 288.74101257 C133.13013758 288.74370918 123.27342832 288.73028494 113.41662598 288.70706177 C102.03929472 288.68044082 90.66216742 288.67871174 79.28481567 288.69045013 C68.31294972 288.70124752 57.34115716 288.69502638 46.36929703 288.68089485 C41.71167378 288.67515357 37.05410456 288.67520305 32.39648056 288.67996025 C26.90847874 288.68474993 21.4206989 288.67454604 15.93273926 288.6530056 C13.92488478 288.64746519 11.91700885 288.64694704 9.90915298 288.65195847 C-6.93442375 288.68871135 -20.90280263 287.10301909 -33.78308105 275.17019653 C-46.04934688 262.35933963 -46.22145237 246.99889439 -46.14831543 230.32644653 C-46.15374472 228.23726923 -46.16087188 226.14809576 -46.16955566 224.05892944 C-46.18769586 218.4184138 -46.18076001 212.77819282 -46.16803932 207.13767242 C-46.15786328 201.21540066 -46.16731773 195.29315296 -46.17358398 189.37088013 C-46.18084701 179.42828881 -46.17130798 169.48581661 -46.15222168 159.54324341 C-46.13045563 148.07275788 -46.13750795 136.60255681 -46.1595273 125.13207817 C-46.17771962 115.25735997 -46.1802209 105.38272707 -46.16977262 95.50799751 C-46.16355876 89.62181058 -46.16264388 83.73575705 -46.17591858 77.84957886 C-46.1875323 72.3139194 -46.17935079 66.77862424 -46.15634155 61.24300385 C-46.15108387 59.21986239 -46.15251736 57.19668991 -46.16139221 55.1735611 C-46.22777247 38.49483646 -44.7253891 24.96476489 -32.75183105 12.24441528 C-23.52341874 3.57530069 -12.48153675 -0.09534083 0 0 Z " fill="#FFFFFF" transform="translate(45.6307373046875,40.759490966796875)"/>
<path d="M0 0 C4.14410278 1.70040581 7.24393222 4.64140069 10.5625 7.5625 C11.81681122 8.65337612 13.07202954 9.74321007 14.328125 10.83203125 C14.94880859 11.37037598 15.56949219 11.9087207 16.20898438 12.46337891 C18.70598582 14.60570812 21.2551622 16.68029017 23.8125 18.75 C28.67138347 22.69333718 33.36344278 26.79847778 38 31 C36.59160505 35.29445018 34.54145224 37.87046479 31.4375 41.125 C27.21212176 45.65305577 23.24076476 50.2971484 19.34765625 55.1171875 C16.77184866 58.28015922 14.14298675 61.39321111 11.5 64.5 C8.14534626 68.44634525 4.82777696 72.41642657 1.5625 76.4375 C-2.39443418 81.30049424 -6.46435942 86.05700203 -10.55615234 90.80615234 C-14.34857436 95.21675967 -18.04618682 99.69669176 -21.71484375 104.2109375 C-28.31920982 112.27165096 -35.09308753 120.19731049 -42 128 C-46.03805866 126.63733356 -48.54368118 124.8590849 -51.625 121.9375 C-55.98970229 117.89563072 -60.48328347 114.09427619 -65.10546875 110.3515625 C-68.3212062 107.73904705 -71.50728591 105.09303071 -74.6875 102.4375 C-75.21714355 101.99543213 -75.74678711 101.55336426 -76.29248047 101.09790039 C-77.52867134 100.06568718 -78.76439054 99.03290913 -80 98 C-78.47549646 93.00038591 -75.48421241 89.80343306 -72.0625 86 C-70.8808592 84.66203318 -69.69988073 83.32348116 -68.51953125 81.984375 C-67.63128662 80.98180664 -67.63128662 80.98180664 -66.72509766 79.95898438 C-64.19618849 77.08720866 -61.71775398 74.17435256 -59.25 71.25 C-58.79955322 70.71697266 -58.34910645 70.18394531 -57.88500977 69.63476562 C-54.31225419 65.3951739 -50.80590179 61.10333137 -47.3046875 56.8046875 C-42.46980915 50.92088639 -37.51580002 45.13652057 -32.58398438 39.33398438 C-27.10507464 32.88508785 -21.67633943 26.40448945 -16.3359375 19.83984375 C-13.17280888 15.99436798 -9.95092861 12.19992545 -6.71679688 8.4140625 C-4.38251343 5.67307374 -2.11874041 2.91151414 0 0 Z " fill="#FFFFFF" transform="translate(266,25)"/>
<path d="M0 0 C4.65440307 4.53028565 7.65559883 8.64809561 8.3359375 15.26953125 C8.4738953 27.78230364 4.79230527 33.54416889 -3 43 C-7.36080636 40.59910661 -10.90805099 37.64030425 -14.625 34.375 C-15.86890934 33.29455626 -17.11371114 32.2151392 -18.359375 31.13671875 C-19.28073242 30.33886963 -19.28073242 30.33886963 -20.22070312 29.52490234 C-22.73681544 27.36853057 -25.30195181 25.27540642 -27.875 23.1875 C-32.34334484 19.55986597 -36.70324953 15.82890945 -41 12 C-38.9536374 5.24700342 -34.49705832 0.62412678 -28.5 -2.875 C-18.82009648 -7.77132391 -8.38408422 -7.01672285 0 0 Z " fill="#FFFFFF" transform="translate(315,6)"/>
<path d="M0 0 C3.8598042 1.81586126 6.86253847 4.27978045 10.0625 7.0625 C11.22595019 8.06061002 12.39002251 9.05799527 13.5546875 10.0546875 C14.13444336 10.55194336 14.71419922 11.04919922 15.31152344 11.56152344 C22.72885217 17.8806242 30.37744427 23.93171811 38 30 C37.505 31.485 37.505 31.485 37 33 C34.48144582 34.13644167 32.06551828 35.07329175 29.45703125 35.953125 C28.31520638 36.34984406 28.31520638 36.34984406 27.15031433 36.75457764 C25.53575278 37.31170671 23.91908137 37.86275259 22.30053711 38.40820312 C19.83340221 39.24292799 17.37678279 40.10432178 14.91992188 40.96875 C13.34952149 41.50685467 11.77857366 42.04336483 10.20703125 42.578125 C9.47555374 42.83636047 8.74407623 43.09459595 7.99043274 43.36065674 C3.6048021 44.81179361 0.48360733 45.17426763 -4 44 C-6.36652453 38.59404141 -5.87526613 34.71167549 -4.8828125 29.1015625 C-4.74680634 28.26660248 -4.61080017 27.43164246 -4.47067261 26.57138062 C-4.03563279 23.9201365 -3.5806496 21.27277167 -3.125 18.625 C-2.82549769 16.8218342 -2.52730617 15.01845016 -2.23046875 13.21484375 C-1.50213281 8.80722422 -0.75589959 4.40297256 0 0 Z " fill="#FFFFFF" transform="translate(178,130)"/>
</svg>
