<?xml version="1.0" encoding="UTF-8"?>
<svg version="1.1" xmlns="http://www.w3.org/2000/svg" width="249" height="395">
<path d="M0 0 C0.81240666 -0.00382555 1.62481332 -0.00765109 2.46183836 -0.01159257 C5.16380463 -0.02184981 7.86555549 -0.01794434 10.5675354 -0.01396179 C12.51305842 -0.0183123 14.45857973 -0.02349658 16.40409851 -0.02944946 C21.67480866 -0.04281434 26.945447 -0.04342091 32.21617079 -0.04088616 C36.62212245 -0.03981473 41.02805968 -0.04470424 45.43400824 -0.04949158 C55.83155566 -0.06057813 66.22906696 -0.06102899 76.62661743 -0.05497742 C87.33981882 -0.04893784 98.05288888 -0.06125025 108.76606786 -0.08254749 C117.97650881 -0.10018162 127.18690801 -0.10616197 136.39736521 -0.10290974 C141.8928393 -0.10109961 147.38821969 -0.10370615 152.88367844 -0.11762428 C158.05313091 -0.13022743 163.22237909 -0.12823495 168.39182854 -0.11521339 C170.28400302 -0.11285347 172.17619198 -0.11556126 174.06834984 -0.12383652 C197.31707455 -0.2181457 197.31707455 -0.2181457 206.72622681 7.37788391 C213.83623911 14.7162692 215.98171686 22.44303475 215.87759399 32.39692688 C215.39272302 38.12347014 213.6293519 43.01549697 211.48516846 48.31922913 C210.62546505 50.4468922 209.79588407 52.58459583 208.97109985 54.72602844 C207.63762096 58.18307362 206.2928589 61.63549978 204.94351196 65.08638 C202.17705573 72.19235256 199.49332819 79.32926908 196.81216431 86.46772766 C196.55660767 87.14793283 196.30105103 87.82813801 196.03775024 88.52895546 C194.97340335 91.36202861 193.90922547 94.19516509 192.84542465 97.02844334 C190.03018692 104.5253181 187.2040887 112.01808603 184.37710571 119.5105381 C182.92108956 123.3695321 181.46550591 127.22868922 180.00991821 131.08784485 C179.57790541 132.23319938 179.57790541 132.23319938 179.13716507 133.40169239 C174.7421953 145.05423386 170.35184003 156.70851451 165.96113205 168.36266232 C164.09114084 173.32600088 162.22056877 178.28912029 160.34976196 183.25215149 C155.27357826 196.719333 150.20058202 210.1876952 145.13708496 223.65965271 C143.03939634 229.24070051 140.94032774 234.82122899 138.84095573 240.40164375 C137.13395089 244.93948312 135.42877404 249.47800361 133.72500896 254.01706028 C132.67004571 256.82625303 131.61329326 259.63477031 130.55607033 262.44311333 C129.84169689 264.34233771 129.12945854 266.24236478 128.41731262 268.14242554 C118.18617156 295.29654285 118.18617156 295.29654285 106.55044556 301.26069641 C98.46015939 304.59199071 88.99543393 304.37412797 80.73794556 301.69819641 C70.09539193 297.25218056 65.85607534 290.04524782 61.50372314 279.79573059 C60.48829082 277.26767018 59.5076546 274.72880852 58.53872681 272.18257141 C58.17315674 271.23452637 57.80758667 270.28648132 57.43093872 269.30970764 C56.64615553 267.27296125 55.86359166 265.23535856 55.08306885 263.19697571 C53.40938481 258.82624953 51.72476704 254.45976267 50.04084778 250.0929718 C49.16856275 247.83065139 48.29683271 245.56811693 47.42564392 243.30537415 C43.11286553 232.10752634 38.7429626 220.93237799 34.36294556 209.76069641 C32.87182258 205.95479988 31.38107996 202.14875438 29.89028931 198.34272766 C29.52701035 197.41545364 29.16373138 196.48817963 28.78944397 195.5328064 C24.9930702 185.84120354 21.2082318 176.14510924 17.42544556 166.44819641 C17.09871857 165.61070862 16.77199158 164.77322083 16.43536377 163.91035461 C14.79618723 159.70866311 13.15715803 155.50691416 11.51821899 151.30513 C8.86404956 144.50078974 6.20871494 137.69690427 3.55337524 130.89302063 C2.22315622 127.48454695 0.89308369 124.07601616 -0.43685913 120.66743469 C-3.49078134 112.84061049 -6.54550372 105.01410188 -9.60331726 97.188797 C-22.45228 64.30666878 -22.45228 64.30666878 -28.38705444 48.88569641 C-28.79423706 47.8281012 -29.20141968 46.77050598 -29.62094116 45.68086243 C-33.24759966 36.23313682 -35.49567031 27.80687729 -31.76205444 17.88569641 C-28.44706197 10.66663615 -23.74426959 5.59957101 -16.44955444 2.26069641 C-10.82106423 0.62603209 -5.84098724 -0.02966371 0 0 Z " fill="#FFFFFF" transform="translate(33.449554443359375,-0.2606964111328125)"/>
<path d="M0 0 C8.05951169 6.61047616 11.91934056 14.42776571 13.25390625 24.71875 C13.77771201 35.39514382 11.50035129 44.99062811 4.94140625 53.46875 C-0.2600532 58.917898 -5.68011039 61.83619492 -13.19921875 62.5546875 C-25.72981842 62.68576072 -33.33261334 60.44291529 -42.48046875 51.7265625 C-48.86862412 44.45493883 -51.03551487 36.40073364 -50.89453125 26.8984375 C-50.18329949 17.86315991 -46.4220975 9.62979618 -39.76171875 3.4296875 C-28.31950149 -5.5732974 -12.61641395 -8.37421362 0 0 Z " fill="#FFFFFF" transform="translate(141.68359375,332.78125)"/>
</svg>
