<?xml version="1.0" encoding="UTF-8"?>
<svg version="1.1" xmlns="http://www.w3.org/2000/svg" width="310" height="526">
<path d="M0 0 C18.11018198 15.20684137 30.1485409 34.49230146 35.97265625 57.49609375 C36.19824219 58.36492187 36.42382812 59.23375 36.65625 60.12890625 C44.64289917 97.91401887 28.33663726 128.57253842 9.45703125 159.7265625 C5.16737774 166.81056823 0.94731458 173.93572083 -3.27734375 181.05859375 C-4.10349443 182.45085893 -4.92966636 183.8431115 -5.75585938 185.23535156 C-10.8497233 193.82026878 -15.93891104 202.40795652 -21.02734375 210.99609375 C-22.9887277 214.30585161 -24.95015287 217.61558504 -26.91162109 220.92529297 C-28.40465207 223.44484327 -29.89705517 225.9647645 -31.38916016 228.48486328 C-36.58530307 237.26005439 -41.79184177 246.0289564 -47.01184082 254.78997803 C-47.94544542 256.35849884 -48.87664732 257.92844911 -49.80761719 259.49853516 C-65.65429155 286.19408658 -86.30346386 306.74311403 -116.671875 315.70703125 C-136.22464218 320.30500444 -157.83395625 320.99512053 -177.02734375 314.49609375 C-177.9719043 314.18260986 -177.9719043 314.18260986 -178.93554688 313.86279297 C-194.58589441 308.54915768 -207.34722933 300.07018595 -219.02734375 288.49609375 C-219.70410156 287.86832031 -220.38085938 287.24054688 -221.078125 286.59375 C-234.7171122 273.74104588 -242.79859662 255.45654857 -247.02734375 237.49609375 C-247.39472656 236.01302734 -247.39472656 236.01302734 -247.76953125 234.5 C-255.78449622 195.79760067 -237.26691426 164.57528381 -218.04199219 132.8359375 C-214.69255743 127.28331177 -211.39103294 121.70249413 -208.08984375 116.12109375 C-207.42654053 115.00041504 -206.7632373 113.87973633 -206.07983398 112.72509766 C-204.73415484 110.45130216 -203.3886961 108.1773762 -202.04345703 105.90332031 C-198.04265798 99.1419796 -194.03563824 92.38432367 -190.02978516 85.62597656 C-186.0086363 78.84120891 -181.99084911 72.05446536 -177.9753418 65.26635742 C-175.9802086 61.89704141 -173.98068977 58.53036003 -171.98046875 55.1640625 C-169.32724521 50.69771558 -166.69460108 46.22005922 -164.07421875 41.734375 C-147.11546944 12.84358428 -127.3805019 -10.38977617 -93.69726562 -19.28564453 C-60.65320699 -27.6079086 -26.93713871 -21.04574869 0 0 Z M-114.82495117 36.50732422 C-120.69561812 43.53996188 -125.25804634 51.22919652 -129.83984375 59.12109375 C-130.66624219 60.5306798 -131.49349035 61.93976798 -132.3215332 63.34838867 C-134.03825303 66.27024026 -135.75133794 69.19417666 -137.46191406 72.11962891 C-141.11849372 78.3662714 -144.82170028 84.58513902 -148.52313232 90.80526733 C-150.50590273 94.13840339 -152.48534674 97.47351298 -154.46484375 100.80859375 C-154.84941742 101.45644333 -155.23399109 102.10429291 -155.63021851 102.77177429 C-161.44675139 112.57099058 -167.25466509 122.37531428 -173.0625 132.1796875 C-175.42416767 136.16588203 -177.78654362 140.15165648 -180.1496582 144.13699341 C-181.83964522 146.98736379 -183.52821652 149.8385579 -185.21484375 152.69091797 C-188.37091783 158.02696881 -191.53965962 163.35418999 -194.74609375 168.66015625 C-202.96323423 182.053569 -202.96323423 182.053569 -209.02734375 196.49609375 C-209.38699219 197.52669922 -209.38699219 197.52669922 -209.75390625 198.578125 C-214.19568911 214.06514125 -210.96105443 232.10231207 -203.96484375 246.24609375 C-194.8340431 262.00503448 -180.19630519 273.89459222 -162.77734375 279.30859375 C-146.11567937 283.30069985 -129.12586965 281.89178921 -114.02734375 273.49609375 C-112.65835938 272.74005859 -112.65835938 272.74005859 -111.26171875 271.96875 C-98.05569046 264.12997623 -90.59190809 253.41562319 -83.02734375 240.49609375 C-82.04267981 238.83793961 -81.05696305 237.18041032 -80.0703125 235.5234375 C-77.89435853 231.86087668 -75.72880908 228.19240657 -73.5703125 224.51953125 C-69.80125629 218.10632088 -66.00912963 211.7069007 -62.21484375 205.30859375 C-61.19602891 203.58981764 -60.17721425 201.87104142 -59.15844727 200.15223694 C-58.13091704 198.41867715 -57.10330693 196.68516475 -56.07568359 194.95166016 C-52.7255819 189.30019291 -49.37654195 183.64809645 -46.02734375 177.99609375 C-44.69401488 175.74609111 -43.36068154 173.49609111 -42.02734375 171.24609375 C-41.36734375 170.13234375 -40.70734375 169.01859375 -40.02734375 167.87109375 C-34.02734375 157.74609375 -34.02734375 157.74609375 -32.0246582 154.36791992 C-30.69868625 152.12944069 -29.37429065 149.89002691 -28.05151367 147.6496582 C-24.97840102 142.44903515 -21.89218555 137.25814899 -18.74563599 132.10165405 C-17.28662101 129.70837628 -15.83698153 127.3094819 -14.38793945 124.91015625 C-13.38156018 123.2523146 -12.36195201 121.60252539 -11.34179688 119.953125 C-0.86801338 102.57985848 3.27707845 83.50465527 -1.58984375 63.55859375 C-7.27882776 45.30643671 -18.98069583 31.21669736 -35.7421875 22.00390625 C-62.19689158 9.17508275 -94.88424449 14.19691519 -114.82495117 36.50732422 Z " fill="#FFFFFF" transform="translate(272.02734375,22.50390625)"/>
<path d="M0 0 C14.42412416 13.23814061 20.3998908 37.60414323 21.31640625 56.4140625 C22.20149604 86.05078008 12.32074188 107.90354807 -2.78279114 132.70361328 C-6.51501655 138.83207947 -10.16443107 145.0086319 -13.8125 151.1875 C-15.14144472 153.43127535 -16.470881 155.67475962 -17.80078125 157.91796875 C-18.13756393 158.48612305 -18.47434662 159.05427734 -18.82133484 159.63964844 C-23.85271893 168.12678084 -28.89189764 176.60929016 -33.93066406 185.09204102 C-38.33084027 192.50038074 -42.72494677 199.91223992 -47.11157227 207.32861328 C-49.70835654 211.71627206 -52.31059864 216.10067696 -54.9140625 220.484375 C-56.38809231 222.96717413 -57.8588958 225.45185719 -59.328125 227.9375 C-61.34079992 231.34180023 -63.35997131 234.74217867 -65.38302612 238.14031982 C-66.15610763 239.44117063 -66.92711966 240.74325403 -67.6958313 242.04669189 C-72.03523738 249.4012716 -76.51815199 256.43262887 -82 263 C-82.75925781 263.91910156 -83.51851562 264.83820313 -84.30078125 265.78515625 C-101.9653462 285.78212977 -127.55344826 298.47731414 -154.28515625 300.14233398 C-183.14265093 301.30241944 -210.24314884 293.35476731 -231.96875 273.84375 C-252.05329937 255.23003885 -265.15912331 229.87933865 -266.23828125 202.20703125 C-266.93002577 168.65742186 -253.36484334 144.20773763 -236.29174805 116.37426758 C-231.36824664 108.3361659 -226.63333741 100.20815998 -222 92 C-217.82326018 92 -216.06610317 94.33383551 -213.125 97 C-206.82841527 102.53708497 -200.23869137 106.78974073 -193 111 C-191.515 111.99 -191.515 111.99 -190 113 C-191.48562427 117.03621889 -193.41513958 120.60213077 -195.59765625 124.3046875 C-195.94804962 124.90105515 -196.29844299 125.49742279 -196.65945435 126.11186218 C-197.79051272 128.0348676 -198.9264964 129.95491264 -200.0625 131.875 C-200.8411894 133.19766595 -201.61959046 134.52050169 -202.39770508 135.84350586 C-205.93164026 141.8454448 -209.48604714 147.83402278 -213.10668945 153.78417969 C-224.40292702 172.37053488 -230.21329423 189.97266292 -225.9375 211.75 C-221.24748303 229.12936194 -210.5096299 243.30918579 -195.25 252.6875 C-179.94219001 261.31025373 -162.17106577 263.61452719 -145.125 259.375 C-123.18344492 252.66153912 -110.49338207 238.87672676 -99.5625 219.3125 C-98.56941678 217.55953278 -97.57315787 215.80839392 -96.57688904 214.05723572 C-95.61570744 212.36674298 -94.65742865 210.67460081 -93.69921875 208.98242188 C-91.37881476 204.90971281 -88.9741323 200.89519013 -86.54736328 196.88500977 C-82.80657104 190.69555941 -79.12192069 184.47312812 -75.4375 178.25 C-74.7413805 177.07454024 -74.04525415 175.89908454 -73.34912109 174.72363281 C-71.93244534 172.33131916 -70.5159646 169.93889016 -69.09960938 167.54638672 C-66.44577522 163.06364554 -63.7907419 158.58161517 -61.13525391 154.09985352 C-59.83259568 151.90127078 -58.53018839 149.70253935 -57.22802734 147.50366211 C-53.94064754 141.95425383 -50.64887474 136.40754266 -47.34715271 130.86665344 C-45.66239696 128.03918671 -43.9789945 125.21091508 -42.29556274 122.38265991 C-41.49222028 121.03394722 -40.68819728 119.68563958 -39.88339233 118.33779907 C-35.55216751 111.08385073 -31.27154031 103.8022778 -27.08984375 96.4609375 C-26.71650406 95.81300735 -26.34316437 95.16507721 -25.95851135 94.49751282 C-17.74035775 79.95840958 -15.28774035 62.37991218 -19.4375 46.125 C-20.18225144 43.65688654 -20.93214164 41.19946837 -21.76245117 38.75878906 C-22.09246347 34.92616939 -20.49698099 32.56712932 -18.5546875 29.4140625 C-18.18779816 28.79405365 -17.82090881 28.1740448 -17.44290161 27.5352478 C-16.267074 25.55675123 -15.07114436 23.5912647 -13.875 21.625 C-13.09247987 20.3106512 -12.31121628 18.99555343 -11.53125 17.6796875 C-7.91753908 11.61625613 -4.24767862 5.64651254 0 0 Z " fill="#FFFFFF" transform="translate(266,226)"/>
<path d="M0 0 C-5.39297686 11.51766416 -12.20966596 22.26689135 -19 33 C-19.73863281 32.9278125 -20.47726563 32.855625 -21.23828125 32.78125 C-44.16595884 30.6836734 -63.21445596 34.18224058 -81.41015625 48.95703125 C-89.38138007 56.30967685 -94.43212611 65.88675266 -99.84179688 75.15576172 C-101.17460041 77.43902324 -102.51173655 79.7197608 -103.85302734 81.99804688 C-105.18841661 84.26959529 -106.51192851 86.54817303 -107.82275391 88.83398438 C-108.43554199 89.87748047 -109.04833008 90.92097656 -109.6796875 91.99609375 C-110.49542236 93.40652954 -110.49542236 93.40652954 -111.32763672 94.84545898 C-113 97 -113 97 -115.03662109 97.88476562 C-120.73589111 98.21926643 -127.15795366 92.51463943 -131.3515625 89.06640625 C-135.84619247 84.75399101 -140.42783302 79.72549302 -143 74 C-142.48711982 70.38206189 -140.76801814 67.55601044 -138.97265625 64.4140625 C-138.03945557 62.78053833 -138.03945557 62.78053833 -137.08740234 61.11401367 C-136.41346301 59.95041304 -135.73847468 58.78741941 -135.0625 57.625 C-134.72164368 57.03764069 -134.38078735 56.45028137 -134.02960205 55.84512329 C-117.56742655 27.55496029 -96.80022587 5.60879272 -64.42016602 -3.47607422 C-44.97617473 -8.50457828 -18.11872914 -10.30733826 0 0 Z " fill="#FFFFFF" transform="translate(220,191)"/>
</svg>
