<?xml version="1.0" encoding="UTF-8"?>
<svg version="1.1" xmlns="http://www.w3.org/2000/svg" width="417" height="417">
<path d="M0 0 C3.58310732 3.11223589 7.00676308 6.37106196 10.41992188 9.66796875 C11.34546875 10.53035156 12.27101563 11.39273438 13.22460938 12.28125 C38.62254431 36.56397816 55.70134782 73.58534551 56.68386841 108.80659485 C56.7468471 112.49001369 56.75088422 116.17163808 56.73242188 119.85546875 C56.73026672 120.62931915 56.72811157 121.40316956 56.72589111 122.20046997 C56.67493294 133.60081379 56.28744661 144.58865587 53.41992188 155.66796875 C53.23719727 156.42400391 53.05447266 157.18003906 52.86621094 157.95898438 C48.24900951 176.68556487 40.11634837 195.25877616 28.41992188 210.66796875 C27.79859375 211.49683594 27.17726563 212.32570312 26.53710938 213.1796875 C0.90387604 246.23306733 -35.05772544 267.7003631 -76.68554688 273.421875 C-115.70851896 278.17155902 -154.0742467 268.70582056 -186.58007812 246.66796875 C-193.46966821 252.30140616 -199.63727883 258.62834159 -205.89013672 264.94384766 C-207.12752476 266.18971394 -208.3651774 267.43531747 -209.60307312 268.68067932 C-212.25828492 271.35254671 -214.91210547 274.02578559 -217.56498337 276.69997025 C-221.76412984 280.93185918 -225.96933916 285.15768784 -230.17593384 289.38217163 C-231.24311207 290.45397956 -231.24311207 290.45397956 -232.33184946 291.54744017 C-233.7860186 293.00791651 -235.24019648 294.46838414 -236.69438291 295.92884326 C-246.47923396 305.75663161 -256.25953598 315.58887898 -266.02539062 325.43554688 C-272.62451365 332.08918371 -279.23251777 338.73385881 -285.85078871 345.36845148 C-289.34815844 348.87518043 -292.84081364 352.38633275 -296.32258224 355.90855789 C-299.59671464 359.22062897 -302.88240565 362.52078071 -306.17717934 365.81231499 C-307.3807927 367.01888991 -308.58014522 368.22973339 -309.77475929 369.44521904 C-316.71802315 376.50431861 -322.83458335 382.53460057 -332.95117188 384.234375 C-340.51235152 384.22474292 -346.42885576 383.28416636 -352.58007812 378.66796875 C-359.2213724 371.94383089 -360.74841651 365.27365603 -361.13867188 356.05859375 C-359.24944864 344.59114083 -350.79528303 337.19590082 -342.89526367 329.41552734 C-341.59297527 328.11465135 -340.29179091 326.81266932 -338.99162292 325.50967407 C-335.47834184 321.99496498 -331.94991699 318.49583085 -328.41846824 314.99938917 C-324.72326746 311.33555435 -321.04232593 307.65744918 -317.3598175 303.98086548 C-310.39302814 297.02958445 -303.41359776 290.09114201 -296.42948037 283.1572758 C-288.47523827 275.25902074 -280.53527659 267.34647555 -272.59645402 259.43272662 C-256.27344874 243.16191133 -239.93268407 226.90903051 -223.58007812 210.66796875 C-224.51793997 208.92587431 -225.45859203 207.18528183 -226.40039062 205.4453125 C-226.92391113 204.47585693 -227.44743164 203.50640137 -227.98681641 202.50756836 C-229.38918876 200.00818239 -230.87405374 197.6189604 -232.45507812 195.23046875 C-245.80104297 173.09228035 -251.02341158 146.23575905 -250.95507812 120.73046875 C-250.9545343 119.96372833 -250.95399048 119.19698792 -250.95343018 118.40701294 C-250.84721839 85.71714959 -241.05294288 55.07036645 -221.58007812 28.66796875 C-220.55527344 27.27771484 -220.55527344 27.27771484 -219.50976562 25.859375 C-196.8703959 -3.10696687 -166.91756289 -21.16418769 -131.58007812 -30.33203125 C-130.53037842 -30.60539307 -130.53037842 -30.60539307 -129.45947266 -30.88427734 C-85.71172331 -41.61566326 -34.18059025 -28.81478684 0 0 Z M-171.26757812 46.79296875 C-190.8112043 66.55302765 -200.98397689 92.45334219 -201.83007812 120.10546875 C-201.5163619 147.22449385 -191.12696634 171.34057364 -173.58007812 191.66796875 C-173.0103125 192.33957031 -172.44054687 193.01117188 -171.85351562 193.703125 C-154.15873097 212.89516067 -127.25114527 223.47818467 -101.59570312 224.88671875 C-75.58548023 225.68129163 -50.7187928 217.2114875 -30.58007812 200.66796875 C-29.72800781 199.98089844 -28.8759375 199.29382813 -27.99804688 198.5859375 C-7.32342162 181.03692488 4.96667589 155.06483987 7.25976562 128.21484375 C8.99843712 100.56572636 0.1141162 72.78008162 -18.20166016 51.81152344 C-39.16681036 28.75510096 -64.70929709 17.98403919 -95.58007812 15.66796875 C-124.32254802 15.66796875 -150.74723232 26.72754544 -171.26757812 46.79296875 Z " fill="#FFFFFF" transform="translate(360.580078125,33.33203125)"/>
</svg>
