<?xml version="1.0" encoding="UTF-8"?>
<svg version="1.1" xmlns="http://www.w3.org/2000/svg" width="419" height="266">
<path d="M0 0 C3.82124662 1.82103477 7.00983335 4.18957682 10.3125 6.8125 C10.92351562 7.29460937 11.53453125 7.77671875 12.1640625 8.2734375 C17.37239054 12.42100626 22.39001011 16.76887583 27.3918457 21.16137695 C31.49499618 24.74706072 35.68713996 28.17037951 40 31.5 C45.73608508 35.92895395 51.22091099 40.59607184 56.67138672 45.37060547 C60.85632906 49.03037858 65.12305709 52.54921326 69.4921875 55.98828125 C72.46240316 58.37093089 75.35600849 60.83857627 78.25 63.3125 C82.70629157 67.11754802 87.24169421 70.78802957 91.875 74.375 C97.5576528 78.77945164 102.99053706 83.41806746 108.3918457 88.16137695 C113.0604469 92.23998013 117.8658869 96.09214058 122.77001953 99.88208008 C129.38091019 105.01811746 135.68827561 110.50361995 142 116 C138.24793613 124.34789331 130.1683705 127.8602435 122 131 C118.65149667 132.03431826 115.58549381 132.12827883 112.08807278 132.13422108 C110.87118721 132.13867892 109.65430165 132.14313676 108.40054077 132.14772969 C107.04823139 132.1476404 105.69592202 132.14745055 104.34361267 132.14717102 C102.90844373 132.1504707 101.47327572 132.15419649 100.03810889 132.1583125 C96.08923236 132.16832893 92.14037104 132.17204872 88.19148362 132.17470181 C83.93431015 132.17860595 79.6771487 132.18818425 75.41998291 132.19691467 C65.13600764 132.21667654 54.8520314 132.22674519 44.56804189 132.23564246 C39.72445874 132.24002604 34.88087668 132.24539269 30.03729439 132.25063133 C13.93471853 132.26764375 -2.16785664 132.28213757 -18.2704401 132.28938007 C-22.44909224 132.29128995 -26.62774437 132.29321029 -30.80639648 132.29516602 C-32.36426219 132.29589163 -32.36426219 132.29589163 -33.95359992 132.2966319 C-50.77508357 132.30493088 -67.59649608 132.33026552 -84.41794867 132.36274669 C-101.69036939 132.39582657 -118.96275398 132.4138297 -136.23520654 132.41702431 C-145.93213368 132.41918861 -155.62895709 132.42792543 -165.32585335 132.45348549 C-173.58486836 132.47520519 -181.84375444 132.48323667 -190.10279477 132.47351871 C-194.31481535 132.46897762 -198.52656999 132.47084898 -202.738554 132.49028015 C-206.59972047 132.5079386 -210.46042753 132.50689269 -214.32159906 132.49138286 C-215.71332706 132.48901082 -217.10508709 132.49330933 -218.49676622 132.50521151 C-228.97998521 132.58926511 -238.27471905 131.13443249 -247 124.9375 C-247.70125 124.45152344 -248.4025 123.96554687 -249.125 123.46484375 C-250.92651945 122.05740668 -252.53752611 120.7595389 -254 119 C-254 118.01 -254 117.02 -254 116 C-252.26953125 114.34375 -252.26953125 114.34375 -249.8125 112.5 C-245.69133461 109.32942691 -241.69291568 106.07329707 -237.75 102.6875 C-233.29464449 98.88140418 -228.7582495 95.21192685 -224.125 91.625 C-218.44153739 87.21992069 -213.00766588 82.58085013 -207.60595703 77.83642578 C-202.95274676 73.77073598 -198.15950802 69.93916872 -193.26953125 66.1640625 C-188.88161331 62.75233305 -184.67551452 59.16756533 -180.5 55.5 C-175.77335447 51.34834846 -170.97979864 47.3445114 -166 43.5 C-160.26391492 39.07104605 -154.77908901 34.40392816 -149.32861328 29.62939453 C-145.15626106 25.98063161 -140.90333573 22.47112325 -136.546875 19.04296875 C-132.78775049 16.02759741 -129.12633026 12.89931115 -125.46435547 9.76708984 C-122.70705294 7.41499757 -119.93187535 5.13162918 -117 3 C-113.34904902 4.53659036 -111.03782773 6.72575791 -108.26318359 9.52563477 C-107.80739426 9.98273834 -107.35160492 10.43984192 -106.88200378 10.91079712 C-105.38282229 12.41644788 -103.89074472 13.92894464 -102.3984375 15.44140625 C-101.35570488 16.49041175 -100.31245379 17.53890211 -99.26870728 18.5868988 C-96.52636196 21.34252892 -93.7896445 24.1036752 -91.05450439 26.86645508 C-86.67078479 31.29334756 -82.28028259 35.71348843 -77.88655472 40.13044548 C-76.3519302 41.67530686 -74.8207552 43.22352789 -73.28988647 44.77210999 C-72.36197296 45.70655441 -71.43405945 46.64099884 -70.47802734 47.60375977 C-69.65958344 48.4304567 -68.84113953 49.25715363 -67.99789429 50.10890198 C-65.20745691 52.75017816 -63.50507374 53.19116258 -59.75 53.3125 C-59.00234375 53.34988281 -58.2546875 53.38726562 -57.484375 53.42578125 C-51.86007863 52.46186882 -47.71043458 47.9576389 -43.82080078 44.04785156 C-43.34199966 43.5693425 -42.86319855 43.09083344 -42.36988831 42.5978241 C-40.8069013 41.03345679 -39.25109674 39.46215286 -37.6953125 37.890625 C-36.60573462 36.79731236 -35.51571091 35.70444386 -34.42526245 34.61199951 C-31.57020773 31.74934479 -28.72121312 28.88073317 -25.87347412 26.01080322 C-22.96097955 23.07777163 -20.04274478 20.15046339 -17.125 17.22265625 C-11.41105994 11.48733044 -5.70351462 5.74569345 0 0 Z " fill="#FFFFFF" transform="translate(266,134)"/>
<path d="M0 0 C103.29 0 206.58 0 313 0 C308.96683946 4.70535396 304.95959279 9.1831741 300.58389282 13.53636169 C299.96623342 14.15487552 299.34857402 14.77338935 298.71219766 15.41064602 C296.66026712 17.46421204 294.60480458 19.51420441 292.54931641 21.56420898 C291.07040277 23.0428403 289.59170978 24.52169234 288.11322021 26.00074768 C284.11180667 30.00244747 280.10732314 34.00106221 276.10227251 37.99912143 C271.91244763 42.18268398 267.72546509 46.36908923 263.53817749 50.55519104 C255.614288 58.4759757 247.68785341 66.39420834 239.7604965 74.31152254 C230.73315869 83.32767287 221.70866908 92.34667173 212.6844151 101.3659085 C194.12610616 119.91377226 175.56423138 138.45806404 157 157 C152.27755884 153.05511239 147.80512902 148.94930683 143.46363831 144.59062195 C142.84512448 143.97366811 142.22661065 143.35671427 141.58935398 142.72106487 C139.53579377 140.67146519 137.48579301 138.61834365 135.43579102 136.56518555 C133.95715161 135.08790229 132.47829979 133.61083161 130.99925232 132.13395691 C126.99745587 128.13670692 122.99881392 124.13631538 119.00087857 120.13520408 C114.81702046 115.94881082 110.6307193 111.7648617 106.44480896 107.58052063 C99.42307623 100.56060501 92.40345018 93.53858799 85.38500977 86.51538086 C77.25984844 78.38476508 69.1310737 70.25777524 61.00043732 62.13263482 C54.02187034 55.15859689 47.04524275 48.18262334 40.07025093 41.20500976 C35.903014 37.03621054 31.73509652 32.86809777 27.56543159 28.70172691 C23.65208524 24.79125667 19.74116921 20.87837239 15.83216286 16.96356392 C14.39301806 15.52309066 12.95301015 14.08347917 11.51210403 12.64476776 C9.55491807 10.69028963 7.60079896 8.73279774 5.6474762 6.77445984 C5.06860879 6.19782315 4.48974138 5.62118647 3.89333254 5.02707595 C0 1.11415063 0 1.11415063 0 0 Z " fill="#FFFFFF" transform="translate(50,0)"/>
<path d="M0 0 C9.71910923 3.67361898 16.73648544 11.64948831 21 21 C24.93991061 29.90146828 24.40101116 38.92647396 24.34057617 48.46313477 C24.33972908 50.33635952 24.34020665 52.20958527 24.34190369 54.08280945 C24.34276185 59.14831873 24.32516509 64.21361343 24.30418181 69.279073 C24.28538513 74.58015676 24.28366221 79.88124584 24.28010559 85.18235779 C24.27079392 95.21190727 24.24619199 105.24135825 24.21605712 115.27086443 C24.1824858 126.69284919 24.16602023 138.11483874 24.15097082 149.53686059 C24.11964168 173.02462826 24.06689824 196.5123086 24 220 C20.14020477 218.18414296 17.13742554 215.72025007 13.9375 212.9375 C12.77276001 211.93807371 11.6073856 210.93938636 10.44140625 209.94140625 C9.86148926 209.44398926 9.28157227 208.94657227 8.68408203 208.43408203 C4.51571721 204.88450607 0.24817059 201.4531913 -4 198 C-9.82281111 193.26683775 -15.60470548 188.49583427 -21.3125 183.625 C-25.74860809 179.84219049 -30.26590261 176.19454378 -34.875 172.625 C-40.55837978 168.21980687 -45.99232688 163.58085649 -51.39404297 158.83642578 C-55.496699 155.25177651 -59.68794001 151.82894925 -64 148.5 C-69.64232339 144.1440754 -75.02751114 139.55115781 -80.38134766 134.84692383 C-85.16514011 130.66624026 -90.09712149 126.72265541 -95.12158203 122.83666992 C-99.93698062 119.09684477 -104.51957055 115.1366928 -109 111 C-107.48722127 107.44910082 -105.41879899 105.17191655 -102.69735718 102.45684814 C-101.79429337 101.551035 -100.89122955 100.64522186 -99.96080017 99.71195984 C-98.95752037 98.71575778 -97.95414497 97.71965198 -96.95068359 96.72363281 C-95.8957852 95.66929867 -94.84132723 94.61452372 -93.78727722 93.55934143 C-90.92624565 90.6977359 -88.0590883 87.84233993 -85.19079924 84.98801136 C-82.19366458 82.0033768 -79.20219042 79.01307984 -76.21011353 76.02337646 C-70.54408256 70.36356237 -64.8729725 64.70886597 -59.20002425 59.05598617 C-52.74150354 52.61981797 -46.28865902 46.17797174 -39.83628726 39.73564005 C-26.56383508 26.48409457 -13.28426419 13.23970374 0 0 Z " fill="#FFFFFF" transform="translate(395,5)"/>
<path d="M0 0 C3.56843492 1.51741354 5.85370271 3.60685085 8.58111572 6.34060669 C9.49534302 7.25208466 10.40957031 8.16356262 11.35150146 9.10266113 C12.35714871 10.11538613 13.36269969 11.12820672 14.36816406 12.14111328 C15.4323503 13.20586376 16.49697733 14.27017383 17.56201172 15.33407593 C20.45047575 18.22196598 23.3327304 21.11598241 26.21391773 24.01112986 C29.22657973 27.03629155 32.24490374 30.05579312 35.26263428 33.07589722 C40.97557217 38.79505211 46.68339253 44.5192863 52.38939643 50.24535835 C58.88602318 56.76433723 65.38832763 63.27764025 71.89111757 69.79047036 C85.26707693 83.1873367 98.63588184 96.5913219 112 110 C110.1051108 114.20533409 107.24206363 116.65865279 103.75 119.5625 C103.12665771 120.0891626 102.50331543 120.6158252 101.86108398 121.15844727 C97.10447182 125.15008097 92.23343184 128.98363318 87.32324219 132.78344727 C82.2561391 136.73164724 77.43083828 140.92574264 72.60571289 145.16381836 C67.95255287 149.22938824 63.15941661 153.06090185 58.26953125 156.8359375 C53.88161331 160.24766695 49.67551452 163.83243467 45.5 167.5 C40.22259405 172.13541224 34.82864215 176.54425369 29.26953125 180.8359375 C24.881608 184.24767108 20.67558256 187.83250586 16.5 191.5 C11.18331814 196.16840652 5.75529536 200.6261136 0.1574707 204.95239258 C-4.68638112 208.70937183 -9.36601919 212.63944538 -14.00244141 216.64892578 C-17.89912507 220 -17.89912507 220 -19 220 C-19.09353182 195.15632465 -19.16402262 170.31267577 -19.20724869 145.46885967 C-19.22785472 133.93287449 -19.25593795 122.39699885 -19.30175781 110.86108398 C-19.34168545 100.80382217 -19.36744704 90.74663971 -19.37635398 80.68930084 C-19.38155866 75.36631654 -19.39375087 70.04355921 -19.42292023 64.72064781 C-19.45018292 59.70476835 -19.45842309 54.68920817 -19.45243073 49.67326164 C-19.45352612 47.83793652 -19.46141504 46.0026001 -19.4768219 44.16733932 C-19.58654013 30.41678411 -18.1576709 18.973244 -9 8 C-6.11855068 5.17985811 -3.12383952 2.54766468 0 0 Z " fill="#FFFFFF" transform="translate(19,7)"/>
</svg>
