<?xml version="1.0" encoding="UTF-8"?>
<svg version="1.1" xmlns="http://www.w3.org/2000/svg" width="391" height="518">
<path d="M0 0 C1.23943359 0.10441406 1.23943359 0.10441406 2.50390625 0.2109375 C15.6227595 1.92956456 26.83331601 8.70157129 35 19 C41.74005726 29.08200232 43.24636471 38.10049542 44 50 C44.78503906 50.31453125 45.57007813 50.6290625 46.37890625 50.953125 C52.17013527 53.31225142 57.66828647 55.72826669 63 59 C61.65078042 62.62341959 59.98583879 65.99864537 58.18188477 69.41577148 C47.85096709 89.17791731 45.14878078 109.52982119 51.6875 131.0625 C55.61051932 141.93404063 61.36122691 151.3641983 69 160 C69.51820313 160.61230469 70.03640625 161.22460938 70.5703125 161.85546875 C82.23617432 174.66446778 101.20709616 183.12909471 118.31396484 184.13623047 C127.24701417 184.42312872 136.13363711 184.16280169 145 183 C145.33 182.01 145.66 181.02 146 180 C147.48491201 182.96982402 147.13152781 185.64263049 147.13803101 188.95770264 C147.14085229 189.68205041 147.14367357 190.40639819 147.14658034 191.15269589 C147.15494748 193.59236785 147.1562664 196.03199454 147.15771484 198.47167969 C147.16238156 200.21591317 147.16752488 201.96014544 147.17311096 203.70437622 C147.18440479 207.46723059 147.1928328 211.23007698 147.19923019 214.99294281 C147.20989574 220.94285547 147.23013707 226.89271097 147.25234985 232.84259033 C147.31432158 249.7641742 147.36828459 266.68575508 147.40136719 283.60742188 C147.41970881 292.94798428 147.44863995 302.28845135 147.4893719 311.62894368 C147.51045141 316.57327873 147.52590049 321.51749356 147.52817917 326.46187592 C147.53032568 331.11418731 147.54619541 335.76624853 147.57256889 340.41848373 C147.57976351 342.1252619 147.58186207 343.83207037 147.57846642 345.53886032 C147.57456812 347.87099031 147.58903717 350.20232266 147.60800171 352.53436279 C147.61296693 354.49112001 147.61296693 354.49112001 147.61803246 356.48740768 C148.21781324 362.00302127 150.52543635 365.86934692 154.328125 369.8046875 C154.96363281 370.47113281 155.59914063 371.13757813 156.25390625 371.82421875 C156.91261719 372.50097656 157.57132812 373.17773438 158.25 373.875 C159.54822888 375.2252621 160.84510779 376.57682346 162.140625 377.9296875 C162.78330322 378.6002417 163.42598145 379.2707959 164.08813477 379.96166992 C166.57608733 382.61419399 168.95437703 385.35343115 171.33447266 388.10253906 C173.36150075 390.41184166 175.46333223 392.6407137 177.57910156 394.8684082 C191.18029398 409.25531796 191.18029398 409.25531796 191.625 416.1875 C190.67754973 421.96694663 188.57502575 424.81069484 183.9375 428.3125 C179.70248694 430.74537984 176.76405603 431.12642166 171.95286274 431.13422108 C170.04414433 431.14090784 170.04414433 431.14090784 168.09686595 431.14772969 C166.67666327 431.14764039 165.25646059 431.14745053 163.83625793 431.14717102 C162.33381721 431.15046956 160.83137737 431.15419511 159.32893866 431.1583125 C155.18958584 431.16834171 151.05024752 431.17205077 146.91088426 431.17470181 C142.45061333 431.17860213 137.99035392 431.18818064 133.53009033 431.19691467 C122.7533099 431.21668668 111.97652852 431.22674617 101.19973448 431.23564246 C96.12663701 431.24002411 91.05354059 431.24539123 85.98044395 431.25063133 C69.11957548 431.26764426 52.25870766 431.28213893 35.39783192 431.28938007 C31.02132478 431.29129001 26.64481766 431.29321034 22.26831055 431.29516602 C21.18053114 431.29564976 20.09275174 431.2961335 18.97200932 431.2966319 C1.3465877 431.30493404 -16.27876609 431.3302738 -33.90415808 431.36274669 C-51.99353156 431.39580313 -70.08287056 431.41382755 -88.17227441 431.41702431 C-98.33134021 431.41919071 -108.4903071 431.42795833 -118.64934349 431.45348549 C-127.30042939 431.47517313 -135.95139236 431.48325244 -144.60250237 431.47351871 C-149.01666625 431.4689684 -153.43057637 431.47090257 -157.84470558 431.49028015 C-161.88709001 431.50787259 -165.92903482 431.50694619 -169.97142366 431.49138286 C-171.43244103 431.48900081 -172.89348853 431.49336133 -174.35445978 431.50521151 C-182.29938026 431.56565338 -188.2785074 431.46783028 -195 427 C-198.56105931 422.89108542 -199.90456321 419.43989728 -200 414 C-197.91997051 407.43064045 -194.02947317 403.40738567 -189.25 398.5625 C-187.85799274 397.12764177 -186.46735882 395.6914499 -185.078125 394.25390625 C-184.05319946 393.19647217 -184.05319946 393.19647217 -183.00756836 392.11767578 C-180.46163494 389.43210769 -178.03615378 386.6545053 -175.61669922 383.85522461 C-172.42308104 380.19042477 -169.06787503 376.67337594 -165.74609375 373.125 C-165.07985929 372.35958059 -165.07985929 372.35958059 -164.40016556 371.57869816 C-163 370 -163 370 -161.44538498 368.54171658 C-155.17460477 361.85095094 -156.17420127 353.59284776 -156.25878906 345.02172852 C-156.25388801 343.29444973 -156.24632518 341.56717676 -156.23631287 339.83992004 C-156.22055236 336.12935119 -156.22363758 332.41945252 -156.24155426 328.70889473 C-156.26994845 322.82674948 -156.2567976 316.94513138 -156.23846436 311.06297302 C-156.21443666 301.74421575 -156.21912435 292.42572269 -156.23558688 283.10695738 C-156.26407734 266.45862844 -156.243752 249.81032117 -156.21318793 233.16200775 C-156.20360915 227.33104374 -156.206355 221.50025796 -156.21986341 215.66930306 C-156.22674486 212.0181739 -156.22562221 208.36707374 -156.22285652 204.71594048 C-156.22336179 203.04117227 -156.2272451 201.36640055 -156.23503685 199.69165039 C-156.29924993 185.35850616 -155.48598476 171.06352295 -151.875 157.125 C-151.66327148 156.29967773 -151.45154297 155.47435547 -151.23339844 154.62402344 C-140.8342514 116.14279159 -113.81355173 82.6137739 -79.54394531 62.56298828 C-71.00123036 57.77873486 -62.27737161 53.1958041 -53 50 C-52.87044922 48.58460937 -52.87044922 48.58460937 -52.73828125 47.140625 C-51.1040186 32.20736265 -46.5451819 19.92214003 -34.5625 10.1875 C-24.48191073 2.85154176 -12.59734809 -1.1955304 0 0 Z " fill="#FFFFFF" transform="translate(200,0)"/>
<path d="M0 0 C14.44686355 11.35505071 23.55895393 25.54569167 26 44 C27.29067226 60.71526373 23.22109882 77.83439953 12.16040039 90.74682617 C2.13275502 101.8784325 -11.2947876 110.91444324 -26.5859375 112.22094727 C-38.20993443 112.70357267 -49.23624394 112.85958607 -60 108 C-61.42119141 107.36384766 -61.42119141 107.36384766 -62.87109375 106.71484375 C-77.46276935 99.44936311 -87.90104393 86.9516832 -94 72 C-99.45017367 55.58801088 -97.9777685 38.1569154 -90.6875 22.5625 C-82.03264553 6.87885463 -68.71958252 -3.21028136 -51.9375 -8.9375 C-34.39112611 -13.0904879 -14.87660799 -10.26635358 0 0 Z " fill="#FFFFFF" transform="translate(361,56)"/>
<path d="M0 0 C51.48 0 102.96 0 156 0 C153.35357629 18.52496596 147.62902527 33.8379997 133 46 C112.28812074 61.51466049 87.93956202 66.75683164 62.3671875 63.68359375 C48.04917875 61.2500048 35.68791789 55.53592837 24 47 C23.34257812 46.52949219 22.68515625 46.05898438 22.0078125 45.57421875 C10.64482386 36.69852025 2.3985713 22.15742085 0 8 C0 5.36 0 2.72 0 0 Z " fill="#FFFFFF" transform="translate(118,454)"/>
</svg>
