<?xml version="1.0" encoding="UTF-8"?>
<svg version="1.1" xmlns="http://www.w3.org/2000/svg" width="277" height="365">
<path d="M0 0 C4.51135907 4.14512328 7.74459741 8.78634764 11.125 13.875 C15.12509732 19.8115222 19.16608318 25.69271472 23.4375 31.4375 C27.68527763 37.16015714 31.80221835 42.96404578 35.875 48.8125 C40.35943578 55.2512044 44.88897586 61.65131525 49.5 68 C55.88242302 76.7924804 62.10716366 85.69124837 68.32421875 94.60107422 C74.94871213 104.08421407 81.63818501 113.51642081 88.4375 122.875 C92.94084615 129.07543488 97.32106516 135.34714389 101.625 141.6875 C105.93328449 148.0337122 110.34336733 154.27931683 114.90893555 160.44262695 C119.86734819 167.14388798 124.65359044 173.96400596 129.44433594 180.78564453 C132.14590251 184.63109475 134.85404498 188.47190001 137.5625 192.3125 C138.06322021 193.02390137 138.56394043 193.73530273 139.07983398 194.46826172 C139.54977783 195.13486816 140.01972168 195.80147461 140.50390625 196.48828125 C140.93719238 197.10654785 141.37047852 197.72481445 141.81689453 198.36181641 C142.792189 199.7122551 143.8387209 201.01094285 144.90234375 202.29296875 C145.26457031 202.85628906 145.62679687 203.41960937 146 204 C144.60340563 208.1897831 141.60485341 209.55215213 138.0625 211.875 C136.58851684 212.86391051 135.11590987 213.85487465 133.64453125 214.84765625 C132.87705566 215.36473145 132.10958008 215.88180664 131.31884766 216.41455078 C127.5757905 218.97376464 123.91415125 221.64209254 120.25 224.3125 C112.20739487 230.15651399 104.07953787 235.87105747 95.92578125 241.55859375 C90.45067341 245.37831078 84.99917502 249.23113004 79.55444336 253.09399414 C75.74238574 255.79279177 71.89926789 258.42865616 68 261 C63.46463076 259.49170168 61.54234359 255.80650329 59.0625 252 C58.08274827 250.5351059 57.10089636 249.07161474 56.1171875 247.609375 C55.60639648 246.84818359 55.09560547 246.08699219 54.56933594 245.30273438 C52.01990445 241.56187597 49.35421086 237.90772374 46.6875 234.25 C40.23930628 225.37627713 33.95255341 216.39433374 27.67578125 207.39892578 C21.05128787 197.91578593 14.36181499 188.48357919 7.5625 179.125 C3.05915385 172.92456512 -1.32106516 166.65285611 -5.625 160.3125 C-9.93328449 153.9662878 -14.34336733 147.72068317 -18.90893555 141.55737305 C-23.88113618 134.83747764 -28.67995517 127.99792626 -33.48388672 121.15722656 C-35.98343307 117.60070618 -38.49205761 114.05060227 -41 110.5 C-43.99158195 106.26403277 -46.98178834 102.02713382 -49.96484375 97.78515625 C-55.73467739 89.58641794 -61.55192699 81.42583819 -67.46069336 73.32641602 C-70.14432698 69.63315776 -72.79151139 65.91492695 -75.3828125 62.15625 C-75.88441895 61.43244141 -76.38602539 60.70863281 -76.90283203 59.96289062 C-78 58 -78 58 -78 55 C-75.56200615 53.05021518 -73.14679797 51.29952381 -70.5625 49.5625 C-68.99070296 48.4807338 -67.41909345 47.3986951 -65.84765625 46.31640625 C-64.63553467 45.48906982 -64.63553467 45.48906982 -63.39892578 44.64501953 C-59.73868088 42.13507346 -56.12029869 39.56705931 -52.5 37 C-51.08228468 35.99833913 -49.664315 34.99703817 -48.24609375 33.99609375 C-47.19397705 33.25335205 -47.19397705 33.25335205 -46.12060547 32.49560547 C-44.01000383 31.00705543 -41.89779562 29.52081245 -39.78515625 28.03515625 C-31.58641794 22.26532261 -23.42583819 16.44807301 -15.32641602 10.53930664 C-10.3045187 6.89024353 -5.18795814 3.40857952 0 0 Z " fill="#FFFFFF" transform="translate(112,54)"/>
<path d="M0 0 C0.89847656 0.4021875 1.79695313 0.804375 2.72265625 1.21875 C13.08953244 6.35227879 19.53096267 14.00421978 26.0625 23.3125 C26.55234375 24.00649902 27.0421875 24.70049805 27.546875 25.41552734 C27.99675781 26.07891113 28.44664063 26.74229492 28.91015625 27.42578125 C29.31371338 28.01786377 29.71727051 28.60994629 30.13305664 29.2199707 C31 31 31 31 31 35 C29.66503906 36.42529297 29.66503906 36.42529297 27.765625 37.7421875 C27.05656006 38.24371338 26.34749512 38.74523926 25.61694336 39.26196289 C24.83585205 39.79426514 24.05476074 40.32656738 23.25 40.875 C22.44377197 41.44017334 21.63754395 42.00534668 20.80688477 42.58764648 C19.08833802 43.79028196 17.36562007 44.98697493 15.63916016 46.17822266 C13.06678931 47.95389622 10.50622259 49.74525424 7.94921875 51.54296875 C4.59640865 53.89895332 1.23980736 56.24932131 -2.12109375 58.59375 C-23.42376885 73.21308923 -23.42376885 73.21308923 -44.1081543 88.66967773 C-46 90 -46 90 -48 90 C-49.83117257 87.66168677 -51.52421041 85.32960121 -53.1875 82.875 C-53.67855225 82.15231934 -54.16960449 81.42963867 -54.67553711 80.68505859 C-64.62499125 65.76658889 -70.49337436 51.67578229 -66.875 33.5625 C-63.45064399 20.11756305 -55.70096885 10.0319864 -44 2.5625 C-31.15583333 -4.42361839 -13.60104245 -6.22300729 0 0 Z " fill="#FFFFFF" transform="translate(68,3)"/>
<path d="M0 0 C1.28362693 15.31874999 2.53322867 30.64002314 3.75604248 45.96374512 C3.9784407 48.73167652 4.20520866 51.49919932 4.43408203 54.26660156 C4.78905423 58.57217239 5.11616274 62.87928923 5.4375 67.1875 C5.54239746 68.4237915 5.64729492 69.66008301 5.75537109 70.93383789 C6.48456536 81.29860229 6.48456536 81.29860229 3 86 C-1.08863343 88.72575562 -4.19952546 88.55983677 -9 88 C-12.10017469 87.1172817 -14.94642873 85.84660908 -17.86328125 84.484375 C-19.09718597 83.93307419 -19.09718597 83.93307419 -20.35601807 83.37063599 C-23.01525501 82.17880667 -25.66357562 80.96455235 -28.3125 79.75 C-30.14297685 78.92541895 -31.97428281 78.10267608 -33.80639648 77.28173828 C-37.47185441 75.63854123 -41.13426088 73.9888134 -44.79492188 72.33496094 C-52.00990231 69.08592959 -59.28113988 65.97164089 -66.5625 62.875 C-67.7378833 62.37323242 -68.9132666 61.87146484 -70.12426758 61.35449219 C-72.74872195 60.23445736 -75.37389938 59.11616791 -78 58 C-78 56.68 -78 55.36 -78 54 C-76.54150391 52.55883789 -76.54150391 52.55883789 -74.4765625 51.22265625 C-73.32969971 50.46263306 -73.32969971 50.46263306 -72.15966797 49.68725586 C-70.90500732 48.88300171 -70.90500732 48.88300171 -69.625 48.0625 C-67.86836647 46.90058931 -66.11319179 45.7364705 -64.359375 44.5703125 C-63.46283203 43.97766602 -62.56628906 43.38501953 -61.64257812 42.77441406 C-57.64860246 40.09257601 -53.75980327 37.27422018 -49.875 34.4375 C-43.42857537 29.74836146 -36.94314787 25.12136615 -30.42041016 20.5390625 C-24.22683214 16.17970864 -18.09056462 11.74292532 -11.97460938 7.27539062 C-1.96753266 0 -1.96753266 0 0 0 Z " fill="#FFFFFF" transform="translate(271,277)"/>
</svg>
