<?xml version="1.0" encoding="UTF-8"?>
<svg version="1.1" xmlns="http://www.w3.org/2000/svg" width="256" height="256">
<path d="M0 0 C2.87950061 1.86049925 4.71838058 4.12576229 6.80078125 6.8515625 C11.37568676 11.66076236 17.86585581 14.11500907 24.3515625 14.61328125 C35.32450479 14.84441862 43.23354932 13.01859251 51.25 5.375 C52.11625 4.488125 52.9825 3.60125 53.875 2.6875 C57.12695218 -0.47887449 59.80549415 -1.91701362 64.36328125 -2.0234375 C70.02230333 -1.88233783 74.44744059 0.24019588 79.4375 2.75 C80.35080078 3.19827148 81.26410156 3.64654297 82.20507812 4.10839844 C93.06040031 9.58189481 105.81492786 16.21670366 110.75 27.9375 C111.79803139 32.88496351 110.17582676 37.27655394 108.94140625 42.0703125 C107.04921205 51.11435937 109.34066991 58.71199467 114.25 66.375 C119.22496342 72.42563118 125.24231452 76.03677748 132.8125 77.8125 C138.16198268 79.12758116 141.68340172 81.15506089 145.25 85.375 C149.14317785 92.45350519 148.46732618 101.14551153 148.49023438 108.98583984 C148.49987275 110.9737554 148.53104299 112.96152873 148.5625 114.94921875 C148.64356278 135.19464732 148.64356278 135.19464732 142.5625 141.8125 C138.90486568 144.50514143 134.75117337 145.48762072 130.4375 146.6875 C121.86263401 149.08096748 115.77093998 152.98503559 110.79296875 160.60546875 C106.36543941 169.44488245 106.97537341 177.27263724 109.52734375 186.5546875 C110.8793572 191.83119404 111.15405883 196.25162388 108.625 201.25 C100.93401041 212.26799071 83.72055968 221.09344118 71.25 225.375 C66.78405957 226.04294935 63.26539155 225.87233464 59.1875 223.875 C56.74523369 221.79647548 54.59115262 219.68152001 52.375 217.375 C46.0166406 210.82137428 39.20014888 208.23666952 30.125 208.0625 C20.81813632 208.0424421 14.64975213 210.56408236 7.80859375 216.7890625 C6.28817186 218.33615846 4.91947862 219.93393242 3.5625 221.625 C0.9191961 224.76838842 -0.9083598 226.08056531 -4.96118164 226.72851562 C-11.9777979 226.8835631 -16.98988399 225.03464735 -23.1875 221.875 C-24.5633728 221.19594604 -24.5633728 221.19594604 -25.96704102 220.50317383 C-32.78111596 217.06137375 -38.86168628 213.25451509 -44.75 208.375 C-45.37003906 207.91480469 -45.99007812 207.45460937 -46.62890625 206.98046875 C-50.23874578 204.24047007 -52.21484558 201.63931783 -53.75 197.375 C-54.22417135 193.18648641 -53.75038754 190.17063938 -52.25 186.3125 C-49.57519303 178.8256001 -49.3292607 169.93238068 -52.3125 162.5 C-56.30147278 154.9839355 -61.59183431 149.14517511 -69.75 146.375 C-71.74662004 145.92232501 -73.74694382 145.48578734 -75.75 145.0625 C-81.63303854 143.67737953 -86.24786106 141.44861154 -89.75 136.375 C-92.25503542 129.46767283 -92.08907863 122.47272918 -92.06567383 115.18603516 C-92.06252772 113.14300411 -92.08598318 111.10144522 -92.11132812 109.05859375 C-92.1557201 99.82569127 -91.74372993 90.43337126 -86.9375 82.3125 C-82.66493853 78.52823127 -78.41561134 77.26670999 -72.9375 76.0625 C-64.85392865 74.10922068 -59.15163577 70.78225349 -54.3125 63.9375 C-49.93515853 56.65001461 -49.08480489 49.75389993 -49.75 41.375 C-50.08 40.385 -50.41 39.395 -50.75 38.375 C-51.74417704 35.39246887 -52.04746717 33.06489979 -52.1875 29.9375 C-52.24744141 28.60912109 -52.24744141 28.60912109 -52.30859375 27.25390625 C-51.12765613 21.16753545 -46.93278788 17.05404665 -41.94189453 13.65966797 C-41.34231934 13.27697754 -40.74274414 12.89428711 -40.125 12.5 C-39.48546387 12.08508301 -38.84592773 11.67016602 -38.18701172 11.24267578 C-32.91606718 7.92113807 -27.46274188 5.00032866 -21.875 2.25 C-21.10333496 1.8595752 -20.33166992 1.46915039 -19.53662109 1.06689453 C-13.07089531 -1.98240104 -6.63189437 -3.3131259 0 0 Z M-4.140625 89.07421875 C-10.9134444 98.75672028 -12.1763281 108.89577423 -10.75 120.375 C-8.39428065 131.32448881 -1.77966536 139.9182157 7.25 146.375 C17.26265796 151.8184549 28.31652716 153.06194744 39.46484375 150.69140625 C49.9274719 147.15494989 58.08318382 140.23551553 63.796875 130.828125 C68.55161721 121.15836837 68.87985108 110.2999175 66.43359375 99.90625 C62.58606029 89.50316303 55.29364948 82.02654111 45.8046875 76.53125 C27.62018338 68.30095456 8.2024237 74.04174431 -4.140625 89.07421875 Z " fill="#FFFFFF" transform="translate(99.75,15.625)"/>
</svg>
