<?xml version="1.0" encoding="UTF-8"?>
<svg version="1.1" xmlns="http://www.w3.org/2000/svg" width="266" height="477">
<path d="M0 0 C3.25622157 1.218276 5.77900841 3.31985108 8.515625 5.41015625 C33.05925909 23.46811637 63.64225498 30.46893025 93.75390625 26.15625 C114.68672685 22.58148287 134.27984378 13.95049689 150.265625 -0.15234375 C174.13080063 10.46828415 192.77643698 31.7777089 202.11962891 56.06787109 C207.24476753 70.90275787 208.56547043 85.68978076 208.49267578 101.29614258 C208.49211038 103.01232395 208.49243074 104.7285058 208.49356079 106.44468689 C208.49413027 111.06364779 208.48244219 115.682503 208.46841288 120.30143952 C208.45583737 125.14339287 208.45472967 129.98534913 208.45236206 134.82731628 C208.44616722 143.97839245 208.42978363 153.12942033 208.40966308 162.28047532 C208.38724168 172.70620647 208.37629501 183.13194002 208.36627221 193.55768931 C208.34541546 214.98770514 208.31027862 236.41767765 208.265625 257.84765625 C204.58436304 259.46028105 200.90134881 261.06886564 197.21801758 262.67675781 C196.18167427 263.13079987 195.14533096 263.58484192 194.07758331 264.05264282 C186.79083496 267.23034839 179.52048002 270.14876331 171.953125 272.59765625 C170.27657837 273.14522583 170.27657837 273.14522583 168.56616211 273.70385742 C143.18030249 281.79064722 115.97070512 287.2933454 89.265625 287.84765625 C88.29737793 287.8734375 87.32913086 287.89921875 86.33154297 287.92578125 C45.35720711 288.89002507 6.25483414 282.62622292 -32.296875 268.84765625 C-33.54355957 268.40425903 -33.54355957 268.40425903 -34.81542969 267.9519043 C-40.19959374 265.96589879 -45.38629957 263.65444422 -50.57397461 261.2109375 C-51.26488945 260.8869397 -51.95580429 260.56294189 -52.66765594 260.22912598 C-54.35717772 259.4366134 -56.04586257 258.64231704 -57.734375 257.84765625 C-57.80461374 234.89842171 -57.8574358 211.94920502 -57.88981152 188.99988461 C-57.90524707 178.34290398 -57.92627294 167.68599035 -57.96069336 157.02905273 C-57.99069746 147.73498457 -58.00997404 138.44096495 -58.01664048 129.14684969 C-58.02053416 124.23066574 -58.02961504 119.31462061 -58.05156517 114.39848137 C-58.07210471 109.76017929 -58.07817394 105.12207166 -58.07369804 100.48372841 C-58.0745155 98.79199538 -58.0803762 97.10025506 -58.09199142 95.40856171 C-58.29067243 64.94753212 -47.32820197 38.85224523 -26.08203125 17.13671875 C-7.44306014 -0.65378231 -7.44306014 -0.65378231 0 0 Z " fill="#FFFFFF" transform="translate(57.734375,189.15234375)"/>
<path d="M0 0 C1.23878906 0.09152344 2.47757812 0.18304687 3.75390625 0.27734375 C32.39309249 2.81612591 56.982339 16.70470132 75.84375 38.2890625 C94.280047 61.4680301 99.00250164 87.99810391 97 117 C96.31949499 122.90724988 94.9057802 128.37735654 93 134 C92.78569336 134.6403418 92.57138672 135.28068359 92.35058594 135.94042969 C83.32856219 162.27108122 64.44703537 182.33644622 40 195 C34.80073063 197.47499058 29.51022646 199.34355156 24 201 C22.32550781 201.50660156 22.32550781 201.50660156 20.6171875 202.0234375 C-3.9782073 208.13026673 -29.66318697 204.29321019 -52 193 C-53.05832031 192.46503906 -54.11664063 191.93007812 -55.20703125 191.37890625 C-79.32007328 178.20048092 -95.2515958 155.75325572 -103.31640625 129.90625 C-108.57855517 111.19736083 -108.18183916 89.41112968 -102 71 C-101.78569336 70.35820801 -101.57138672 69.71641602 -101.35058594 69.05517578 C-92.72686792 43.89325036 -74.47167266 22.56251859 -50.66601562 10.65698242 C-35.04250645 3.21327488 -17.44004382 -1.29491637 0 0 Z " fill="#FFFFFF" transform="translate(138,0)"/>
</svg>
